<svg width="431" height="410" viewBox="0 0 431 410" fill="none" xmlns="http://www.w3.org/2000/svg">
<path fill-rule="evenodd" clip-rule="evenodd" d="M201.297 398.78C158.177 408.136 110.519 418.351 72.1771 396.541C32.5479 374 3.01121 329.799 0.119731 284.348C-2.60973 241.443 42.0681 212.523 57.9278 172.556C72.2203 136.538 63.0556 92.9622 87.8793 63.1877C116.21 29.2064 157.146 3.95545 201.297 0.593669C247.042 -2.88951 293.176 15.0989 328.018 44.9027C361.321 73.3902 370.467 118.223 386.472 158.991C403.715 202.911 445.384 249.119 424.879 291.617C403.893 335.111 338.792 327.256 295.206 348.146C262.33 363.904 236.932 391.047 201.297 398.78Z" fill="#043CAA" fill-opacity="0.3"/>
</svg>
