<svg width="455" height="356" viewBox="0 0 455 356" fill="none" xmlns="http://www.w3.org/2000/svg">
<path fill-rule="evenodd" clip-rule="evenodd" d="M223.11 5.48524C258.356 8.2165 292.766 9.73525 324.752 24.768C363 42.7436 402.518 62.7417 423.236 99.5383C446.385 140.652 469.005 196.218 443.715 236.054C417.542 277.28 351.426 258.769 307.965 281.106C274.848 298.126 259.331 340.767 223.11 349.431C182.528 359.137 132.986 358.708 102.504 330.247C72.2663 302.015 92.2783 250.226 76.1052 212.173C57.2658 167.847 -6.25195 140.092 1.48375 92.5617C8.9973 46.3968 65.7402 25.1976 109.323 8.07391C145.514 -6.14517 184.336 2.48055 223.11 5.48524Z" fill="#043CAA"/>
</svg>
