<svg width="113" height="23" viewBox="0 0 113 23" fill="none" xmlns="http://www.w3.org/2000/svg">
<path d="M0.728027 0.0078125H6.34403C7.70403 0.0078125 8.99203 0.159812 10.208 0.463812C11.44 0.767812 12.512 1.26381 13.424 1.95181C14.336 2.62381 15.056 3.50381 15.584 4.59181C16.128 5.67981 16.4 6.99981 16.4 8.55181C16.4 9.92781 16.136 11.1438 15.608 12.1998C15.096 13.2398 14.4 14.1198 13.52 14.8398C12.64 15.5438 11.624 16.0798 10.472 16.4478C9.32003 16.8158 8.11203 16.9998 6.84803 16.9998H0.728027V0.0078125ZM4.47203 13.5438H6.41603C7.28003 13.5438 8.08003 13.4558 8.81603 13.2798C9.56803 13.1038 10.216 12.8158 10.76 12.4158C11.304 11.9998 11.728 11.4638 12.032 10.8078C12.352 10.1358 12.512 9.31981 12.512 8.35981C12.512 7.52781 12.352 6.80781 12.032 6.19981C11.728 5.57581 11.312 5.06381 10.784 4.66381C10.256 4.26381 9.63203 3.96781 8.91203 3.77581C8.20803 3.56781 7.46403 3.46381 6.68003 3.46381H4.47203V13.5438Z" fill="white"/>
<path d="M23.715 12.4638H17.811V9.58381H23.715V12.4638Z" fill="white"/>
<path d="M26.1845 0.0078125H37.7285V3.46381H29.9285V6.63181H37.2965V10.0878H29.9285V13.5438H38.1605V16.9998H26.1845V0.0078125Z" fill="white"/>
<path d="M43.8457 10.7598L39.9577 5.33581H44.2057L46.2697 8.50381L48.2617 5.33581H52.2697L48.4777 10.7598L52.9657 16.9998H48.7177L46.1737 13.1118L43.4377 16.9998H39.2377L43.8457 10.7598Z" fill="white"/>
<path d="M54.3737 5.33581H57.6857V6.87181H57.7337C57.8777 6.66381 58.0617 6.45581 58.2857 6.24781C58.5257 6.02381 58.7976 5.82381 59.1017 5.64781C59.4216 5.47181 59.7657 5.32781 60.1337 5.21581C60.5017 5.10381 60.8937 5.04781 61.3097 5.04781C62.1737 5.04781 62.9577 5.19981 63.6617 5.50381C64.3657 5.79181 64.9657 6.20781 65.4617 6.75181C65.9737 7.27981 66.3657 7.91181 66.6377 8.64781C66.9097 9.38381 67.0457 10.1918 67.0457 11.0718C67.0457 11.8878 66.9177 12.6718 66.6617 13.4238C66.4217 14.1598 66.0697 14.8158 65.6057 15.3918C65.1577 15.9678 64.6057 16.4318 63.9496 16.7838C63.2936 17.1198 62.5497 17.2878 61.7177 17.2878C60.9657 17.2878 60.2617 17.1758 59.6057 16.9518C58.9657 16.7118 58.4377 16.3118 58.0217 15.7518H57.9737V22.4718H54.3737V5.33581ZM57.6857 11.1678C57.6857 12.0478 57.9337 12.7598 58.4297 13.3038C58.9417 13.8478 59.6537 14.1198 60.5657 14.1198C61.4776 14.1198 62.1817 13.8478 62.6777 13.3038C63.1897 12.7598 63.4457 12.0478 63.4457 11.1678C63.4457 10.2878 63.1897 9.57581 62.6777 9.03181C62.1817 8.48781 61.4776 8.21581 60.5657 8.21581C59.6537 8.21581 58.9417 8.48781 58.4297 9.03181C57.9337 9.57581 57.6857 10.2878 57.6857 11.1678Z" fill="white"/>
<path d="M69.1548 5.33581H72.7548V7.20781H72.8028C73.1868 6.48781 73.6428 5.95181 74.1708 5.59981C74.6988 5.23181 75.3628 5.04781 76.1628 5.04781C76.3708 5.04781 76.5788 5.05581 76.7868 5.07181C76.9948 5.08781 77.1868 5.11981 77.3628 5.16781V8.45581C77.1068 8.37581 76.8508 8.31981 76.5948 8.28781C76.3548 8.23981 76.0988 8.21581 75.8268 8.21581C75.1388 8.21581 74.5948 8.31181 74.1948 8.50381C73.7948 8.69581 73.4828 8.96781 73.2588 9.31981C73.0508 9.65581 72.9148 10.0638 72.8508 10.5438C72.7868 11.0238 72.7548 11.5518 72.7548 12.1278V16.9998H69.1548V5.33581Z" fill="white"/>
<path d="M89.5464 14.9838C88.9704 15.7198 88.2424 16.2878 87.3624 16.6878C86.4824 17.0878 85.5704 17.2878 84.6264 17.2878C83.7304 17.2878 82.8824 17.1438 82.0824 16.8558C81.2984 16.5678 80.6104 16.1598 80.0184 15.6318C79.4424 15.0878 78.9864 14.4398 78.6504 13.6878C78.3144 12.9358 78.1464 12.0958 78.1464 11.1678C78.1464 10.2398 78.3144 9.39981 78.6504 8.64781C78.9864 7.89581 79.4424 7.25581 80.0184 6.72781C80.6104 6.18381 81.2984 5.76781 82.0824 5.47981C82.8824 5.19181 83.7304 5.04781 84.6264 5.04781C85.4584 5.04781 86.2104 5.19181 86.8824 5.47981C87.5704 5.76781 88.1464 6.18381 88.6104 6.72781C89.0904 7.25581 89.4584 7.89581 89.7144 8.64781C89.9704 9.39981 90.0984 10.2398 90.0984 11.1678V12.2958H81.7464C81.8904 12.9838 82.2024 13.5358 82.6824 13.9518C83.1624 14.3518 83.7544 14.5518 84.4584 14.5518C85.0504 14.5518 85.5464 14.4238 85.9464 14.1678C86.3624 13.8958 86.7224 13.5518 87.0264 13.1358L89.5464 14.9838ZM86.4984 9.84781C86.5144 9.23981 86.3144 8.71981 85.8984 8.28781C85.4824 7.85581 84.9464 7.63981 84.2904 7.63981C83.8904 7.63981 83.5384 7.70381 83.2344 7.83181C82.9304 7.95981 82.6664 8.12781 82.4424 8.33581C82.2344 8.52781 82.0664 8.75981 81.9384 9.03181C81.8264 9.28781 81.7624 9.55981 81.7464 9.84781H86.4984Z" fill="white"/>
<path d="M98.8877 8.76781C98.3597 8.11181 97.6637 7.78381 96.7997 7.78381C96.4957 7.78381 96.1997 7.85581 95.9117 7.99981C95.6237 8.14381 95.4797 8.39181 95.4797 8.74381C95.4797 9.03181 95.6237 9.24781 95.9117 9.39181C96.2157 9.51981 96.5917 9.63981 97.0397 9.75181C97.5037 9.84781 97.9917 9.95981 98.5037 10.0878C99.0317 10.1998 99.5197 10.3838 99.9677 10.6398C100.432 10.8958 100.808 11.2478 101.096 11.6958C101.4 12.1278 101.552 12.7118 101.552 13.4478C101.552 14.1998 101.384 14.8238 101.048 15.3198C100.728 15.7998 100.312 16.1918 99.7997 16.4958C99.2877 16.7838 98.7117 16.9838 98.0717 17.0958C97.4317 17.2238 96.7997 17.2878 96.1757 17.2878C95.3597 17.2878 94.5357 17.1758 93.7037 16.9518C92.8717 16.7118 92.1676 16.2958 91.5917 15.7038L93.7757 13.2798C94.1117 13.6958 94.4797 14.0158 94.8797 14.2398C95.2957 14.4478 95.7757 14.5518 96.3197 14.5518C96.7357 14.5518 97.1117 14.4958 97.4477 14.3838C97.7837 14.2558 97.9517 14.0318 97.9517 13.7118C97.9517 13.4078 97.7997 13.1838 97.4957 13.0398C97.2077 12.8798 96.8316 12.7518 96.3677 12.6558C95.9197 12.5438 95.4317 12.4318 94.9037 12.3198C94.3917 12.1918 93.9037 12.0078 93.4397 11.7678C92.9917 11.5278 92.6157 11.1918 92.3117 10.7598C92.0237 10.3118 91.8797 9.71981 91.8797 8.98381C91.8797 8.29581 92.0157 7.70381 92.2877 7.20781C92.5757 6.71181 92.9437 6.30381 93.3917 5.98381C93.8557 5.66381 94.3837 5.43181 94.9757 5.28781C95.5677 5.12781 96.1677 5.04781 96.7757 5.04781C97.5437 5.04781 98.3197 5.15981 99.1037 5.38381C99.8876 5.60781 100.552 6.00781 101.096 6.58381L98.8877 8.76781Z" fill="white"/>
<path d="M109.997 8.76781C109.469 8.11181 108.773 7.78381 107.909 7.78381C107.605 7.78381 107.309 7.85581 107.021 7.99981C106.733 8.14381 106.589 8.39181 106.589 8.74381C106.589 9.03181 106.733 9.24781 107.021 9.39181C107.325 9.51981 107.701 9.63981 108.149 9.75181C108.613 9.84781 109.101 9.95981 109.613 10.0878C110.141 10.1998 110.629 10.3838 111.077 10.6398C111.541 10.8958 111.917 11.2478 112.205 11.6958C112.509 12.1278 112.661 12.7118 112.661 13.4478C112.661 14.1998 112.493 14.8238 112.157 15.3198C111.837 15.7998 111.421 16.1918 110.909 16.4958C110.397 16.7838 109.821 16.9838 109.181 17.0958C108.541 17.2238 107.909 17.2878 107.285 17.2878C106.469 17.2878 105.645 17.1758 104.813 16.9518C103.981 16.7118 103.277 16.2958 102.701 15.7038L104.885 13.2798C105.221 13.6958 105.589 14.0158 105.989 14.2398C106.405 14.4478 106.885 14.5518 107.429 14.5518C107.845 14.5518 108.221 14.4958 108.557 14.3838C108.893 14.2558 109.061 14.0318 109.061 13.7118C109.061 13.4078 108.909 13.1838 108.605 13.0398C108.317 12.8798 107.941 12.7518 107.477 12.6558C107.029 12.5438 106.541 12.4318 106.013 12.3198C105.501 12.1918 105.013 12.0078 104.549 11.7678C104.101 11.5278 103.725 11.1918 103.421 10.7598C103.133 10.3118 102.989 9.71981 102.989 8.98381C102.989 8.29581 103.125 7.70381 103.397 7.20781C103.685 6.71181 104.053 6.30381 104.501 5.98381C104.965 5.66381 105.493 5.43181 106.085 5.28781C106.677 5.12781 107.277 5.04781 107.885 5.04781C108.653 5.04781 109.429 5.15981 110.213 5.38381C110.997 5.60781 111.661 6.00781 112.205 6.58381L109.997 8.76781Z" fill="white"/>
</svg>
