<svg width="105" height="142" viewBox="0 0 105 142" fill="none" xmlns="http://www.w3.org/2000/svg">
<path fill-rule="evenodd" clip-rule="evenodd" d="M78.8882 76.9357C78.0859 73.8235 77.3481 72.504 75.923 71.4223C74.59 70.4105 72.6442 69.5607 69.8049 68.94C66.8477 68.4228 66.7639 66.8856 66.0224 64.4148C65.8061 63.672 64.7342 63.4744 64.2715 64.0097C64.2063 63.9393 64.1383 63.8748 64.0679 63.8166C64.1309 63.4623 63.6152 62.447 63.6325 62.1081C63.8123 58.5712 62.6556 56.7951 59.7687 56.1349C59.1409 55.9912 54.8765 55.9067 54.2643 56.076C51.5882 56.816 48.9537 59.1657 49.3569 61.9962C48.5168 63.0942 47.6947 63.7644 46.3987 64.1182C44.3804 64.3745 45.3943 92.9734 48.8995 110.107C50.4035 117.459 86.3646 104.946 84.7396 101.264C84.9699 100.589 84.5501 99.8477 84.7396 99.1508C84.8767 98.6464 85.2279 98.4378 85.4047 97.9384C85.6535 97.2356 85.383 96.2928 85.1029 95.5757C84.9881 95.2182 85.3141 94.8335 85.4047 94.4688C85.8345 92.7485 84.8504 92.9002 84.141 91.7502C84.1516 91.7466 84.336 90.9256 84.3352 90.9297C84.4438 90.3436 84.1717 89.5926 83.9344 89.1034C83.7739 88.7727 83.4303 88.5657 83.0888 88.6037C83.4327 87.436 83.8676 86.4645 84.3352 85.3395C85.1623 83.3566 85.9488 81.2823 87.1364 79.4874C87.6228 78.7525 87.23 78.0765 86.4429 78.0264C83.8955 77.8645 81.3759 77.4977 78.8882 76.9357Z" fill="#D08B5B"/>
<path fill-rule="evenodd" clip-rule="evenodd" d="M74.9114 77.176L69.0963 87.0198C69.0963 87.0198 70.4758 87.1575 71.0341 87.4257C71.5924 87.694 74.1557 90.9536 74.1557 90.9536L74.563 92.7485L73.5979 94.1956L73.9743 95.1042C73.9743 95.1042 74.2428 94.4886 74.9114 94.0107C75.5799 93.5329 77.0543 92.7485 77.0543 92.7485C77.0543 92.7485 76.5643 92.4863 76.5643 92.1785C76.5643 91.8706 76.1328 90.5574 77.0543 90.0614C77.9758 89.5653 82.7378 88.4044 82.7378 88.4044L87.564 78.2216L74.9114 77.176Z" fill="#EC7495"/>
<path fill-rule="evenodd" clip-rule="evenodd" d="M48.9708 64.1848L67.4354 67.4263L75.9232 71.4221L77.3088 72.4898L69.0965 87.0197L56.416 89.3339L53.1854 97.7274L53.8448 107.189L74.4734 104.729L83.3716 103.671L85.4634 112.118L85.0855 115.593L84.5359 117.355L62.4766 123.312C62.4766 123.312 51.2438 122.223 49.2525 122.223C47.2613 122.223 32.6621 123.673 32.6621 123.673L29.2842 123.312C29.2842 123.312 21.8107 115.433 20.6515 112.629C19.4924 109.825 16.9858 92.7791 16.9858 92.7791L17.2618 90.16L23.7188 73.5388C23.7188 73.5388 24.581 72.7556 25.6681 71.4221C26.7551 70.0886 48.9708 64.1848 48.9708 64.1848Z" fill="#9DDADB"/>
<path fill-rule="evenodd" clip-rule="evenodd" d="M82.3896 88.1947C80.7209 88.2795 79.0504 88.6763 77.5409 89.3954C76.9233 89.69 76.3637 90.1154 76.1999 90.8152C76.1171 91.1725 76.1373 91.5417 76.1814 91.9027C76.2146 92.1761 76.2229 92.525 76.4604 92.7101C76.5009 92.7414 76.5441 92.7653 76.5892 92.7828C76.0324 93.0342 75.5021 93.3363 75.0309 93.6474C74.6002 93.932 74.1575 94.3702 73.9587 94.8647C73.9422 94.8085 73.9256 94.7561 73.909 94.7063C73.5703 93.7046 73.0484 92.8842 72.2265 92.3326C72.1332 91.9924 71.1315 90.528 70.2011 90.5832C69.1822 90.6431 68.3627 90.7176 67.4413 91.1862C67.1054 91.1789 66.7703 91.1835 66.439 91.1982C66.382 91.2001 66.3847 91.2775 66.439 91.2838C66.7078 91.318 66.9766 91.3557 67.2453 91.3999C67.8841 91.5022 68.521 91.6319 69.144 91.793C69.8915 91.9865 70.6646 92.1807 71.3632 92.5186C72.7179 93.1752 73.5565 94.8915 73.3844 96.3849C73.3559 96.6298 73.2611 97.3701 72.9213 97.2937C72.6343 97.2292 72.5201 96.6298 72.4198 96.4079C72.1511 95.8186 71.6669 95.4337 71.0861 95.1731C70.4041 94.8665 69.6743 94.6594 68.9673 94.4182C68.567 94.281 68.1666 94.1437 67.7653 94.0075C67.3548 93.8667 66.9646 93.6723 66.5274 93.7708C66.2632 93.8307 66.2329 94.1456 66.3811 94.3261C66.6066 94.6013 66.9416 94.6824 67.2665 94.7956C67.6954 94.9448 68.1234 95.094 68.5514 95.2431C69.213 95.4733 69.9062 95.6676 70.5513 95.9493L70.5311 95.9954C70.4786 95.9806 70.4169 96.0331 70.4271 96.0976C70.5238 96.6933 70.6582 97.382 70.509 97.9788C70.3912 98.452 69.9761 98.976 69.4368 98.8369C69.5215 98.7595 69.5528 98.626 69.4957 98.5026C69.2821 98.0459 66.4841 96.2431 66.2347 96.9126C66.2264 96.9364 66.2521 96.9539 66.2724 96.9503C66.4851 96.906 66.8413 97.2688 67.0114 97.3839C67.2572 97.5497 67.5066 97.7117 67.7497 97.882C68.0157 98.0681 68.2752 98.2633 68.5284 98.4649C68.7272 98.6233 68.8772 98.7881 69.1054 98.8683C68.9858 98.9252 68.8909 99.0311 68.8505 99.1665C68.7474 99.5191 68.5486 99.8184 68.2035 99.9741C67.8417 100.136 67.434 100.034 67.0529 100.074C66.5338 100.126 66.081 100.373 65.7027 100.725C64.9084 101.467 64.5099 102.775 63.399 103.126C62.7353 103.335 61.999 103.203 61.3271 103.108C60.577 103.002 59.8462 102.919 59.0906 103.029C58.3671 103.135 57.6833 103.385 57.0224 103.691C56.403 103.977 55.7182 104.302 55.1687 104.729C55.0555 104.38 54.9414 104.035 54.8548 103.678C54.6505 102.836 54.5401 101.978 54.5133 101.112C54.4885 100.288 54.5346 99.4603 54.6053 98.6398C54.6404 98.2301 54.6956 97.8222 54.7306 97.4124C54.7397 97.3093 54.7582 97.1988 54.772 97.0884C55.7532 96.5092 56.7839 96.0655 57.8231 95.6088C57.8259 95.6078 57.8287 95.6059 57.8314 95.6051C57.8637 95.5902 57.895 95.5765 57.9272 95.5627C57.9262 95.5608 57.9253 95.559 57.9235 95.5571C58.0422 95.4845 58.1251 95.3877 58.1748 95.279C59.6722 94.2855 60.924 92.9293 61.8573 91.3474C62.2485 90.6844 62.6249 89.9966 63.1366 89.4157C63.6815 88.7959 64.3286 88.4276 65.1293 88.2361C66.0654 88.0115 67.0299 87.877 67.989 87.8006C68.5127 87.7593 69.098 87.6947 69.6687 87.6976C70.0663 87.7002 70.4556 87.7343 70.8128 87.8328C71.342 87.9783 71.6513 88.3808 71.9835 88.7877C72.3011 89.1782 72.6168 89.5695 72.9131 89.9765C73.1938 90.3622 73.4589 90.7609 73.689 91.1789C73.8271 91.4293 73.955 91.6872 74.0627 91.9532C74.1005 92.0472 74.1502 92.154 74.1732 92.2516C74.1962 92.3501 74.1538 92.4542 74.2643 92.4542C73.8087 92.4606 73.5059 93.5971 73.9587 93.5704C74.5954 93.5333 74.9155 92.7697 74.7908 92.0923C74.5682 90.8836 73.3662 89.4238 73.1284 89.1145C72.6029 88.4313 72.0609 87.54 71.2196 87.2224C71.2076 87.2178 71.1948 87.2132 71.1828 87.2095C71.4276 86.9774 71.6209 86.6995 71.8059 86.4167C71.9964 86.1257 72.2237 85.7924 72.2864 85.4471C72.3259 85.2272 72.0526 85.1018 71.9228 85.2943C71.7341 85.5751 71.643 85.9305 71.5022 86.2391C71.3586 86.552 71.1837 86.8476 71.0457 87.1634C70.7134 87.0612 70.3544 87.0144 69.989 86.9987C70.4502 86.3744 71.2379 85.17 71.3328 85.0153C71.7691 84.2989 72.1842 83.5606 72.5809 82.8211C73.0097 82.0201 73.377 81.1858 73.7875 80.3756C74.0204 79.9162 74.2551 79.453 74.5137 79.0073C74.603 78.8545 74.6987 78.7016 74.8073 78.5626C74.8285 78.5351 74.8552 78.512 74.88 78.4862C74.9086 78.4705 74.938 78.453 74.9546 78.4439C75.1036 78.3583 75.1562 78.1594 75.261 78.0332C75.4286 77.8298 75.6256 77.8058 75.8778 77.803C76.4152 77.7974 76.9546 77.8186 77.4912 77.8334C78.28 77.8555 79.0679 77.8868 79.8557 77.9282C80.0941 77.9411 80.3316 77.954 80.57 77.9687C81.7159 78.0369 82.8609 78.1262 84.0031 78.2358C85.0137 78.3324 86.0243 78.4899 87.0358 78.5655C85.6662 81.8203 84.1476 85.0163 82.4282 88.1009C82.4108 88.1321 82.3978 88.1634 82.3896 88.1947ZM74.7908 96.58C74.5699 96.6813 74.3555 96.8074 74.1558 96.9511C74.1889 96.7274 74.1972 96.4916 74.188 96.2549C74.3527 96.4317 74.5635 96.533 74.7908 96.58ZM84.2204 90.9809C84.2047 90.9827 84.19 90.991 84.1827 91.0066C83.8771 91.6373 84.0049 92.3417 84.5039 92.8362C84.7653 93.094 85.335 93.385 85.3165 93.8085C85.3009 94.151 84.9282 94.4383 84.769 94.721C84.6208 94.9843 84.5655 95.2734 84.6843 95.559C84.8361 95.9244 85.2604 96.0699 85.4059 96.4291C85.59 96.8848 85.2908 97.4346 85.081 97.8313C84.8858 98.1987 84.6336 98.5661 84.4661 98.9546C83.3442 99.5357 80.7983 100.591 80.4918 100.65C80.1182 100.723 79.7436 100.792 79.3679 100.856C78.6473 100.981 77.9248 101.097 77.2005 101.199C76.7882 101.257 76.3749 101.315 75.9616 101.36C75.6008 101.398 75.194 101.451 74.9032 101.179C74.3169 100.63 74.6455 99.7106 75.0164 99.1563C75.0237 99.1453 75.0237 99.1351 75.021 99.1259C75.3707 99.044 75.7196 98.9482 76.0675 98.881C76.7366 98.7521 77.4103 98.6435 78.085 98.5468C79.4711 98.3488 80.8665 98.218 82.2598 98.0865C82.605 98.0532 82.6087 97.5101 82.2598 97.5423C80.258 97.7255 78.2461 97.8994 76.2709 98.2853C75.7757 98.381 75.2841 98.4897 74.7955 98.6121C74.5645 98.6693 74.3169 98.7586 74.0748 98.7614C74.0601 98.7614 74.0453 98.7614 74.0306 98.7604C73.5566 98.7457 73.4876 98.3397 73.7481 98.0017C73.7803 97.9602 73.8134 97.9188 73.8475 97.8793C74.3077 97.3304 74.881 96.964 75.4719 96.5846C76.1337 96.4944 76.7937 96.2936 77.4416 96.1463C79.0413 95.7817 80.641 95.4171 82.2415 95.0534C82.5553 94.9816 82.4219 94.4991 82.1081 94.57C80.8931 94.8454 79.6782 95.1206 78.4632 95.3959L76.6851 95.7993C76.3298 95.8793 75.8861 96.0404 75.4682 96.0985C75.2621 96.127 75.0624 96.1307 74.882 96.0884C74.2994 95.9503 74.2699 95.2219 74.5212 94.7891C74.8028 94.303 75.3348 93.9991 75.807 93.7238C76.6252 93.2459 77.4959 92.9025 78.3464 92.5065C78.4973 92.4734 78.6483 92.4403 78.7992 92.4071C79.6773 92.2137 80.6805 92.1189 81.5071 91.7645C81.7546 91.6594 81.6192 91.269 81.3745 91.2746C80.733 91.2885 80.062 91.5167 79.4352 91.6521C78.7569 91.7994 78.0776 91.9458 77.3993 92.0922C77.3312 92.1069 76.9281 92.2358 76.8673 92.2073C76.8287 92.1889 76.8148 92.0545 76.802 91.9661C76.7604 91.6751 76.7302 91.3695 76.7753 91.0775C76.8747 90.4229 77.4205 90.1153 77.9727 89.864C79.2024 89.3051 80.5508 88.9553 81.8927 88.8152C82.202 88.783 82.5112 88.7628 82.8223 88.7526C83.1876 88.7416 83.4887 88.6771 83.6737 89.0371C83.9645 89.6043 84.1247 90.3336 84.2204 90.9809ZM82.5126 111.546C82.2446 110.619 82.3175 109.629 82.134 108.683C82.0393 108.195 81.91 107.711 81.7688 107.235C81.6548 106.851 81.4648 106.441 81.4432 106.04C81.4419 106.013 81.4735 105.998 81.4952 106.01C81.8732 106.227 82.1635 106.695 82.3791 107.062C82.6372 107.502 82.8342 107.962 82.9932 108.446C83.31 109.41 83.5701 110.574 83.1615 111.546C83.0399 111.835 82.6129 111.893 82.5126 111.546ZM72.056 118.563C71.6567 118.285 71.3658 117.895 71.0272 117.551C70.6942 117.213 71.2148 116.692 71.5479 117.03C71.8368 117.323 72.0876 117.69 72.4276 117.927C72.5912 118.041 72.667 118.248 72.5597 118.431C72.4649 118.593 72.2192 118.677 72.056 118.563ZM69.8293 107.851C70.5582 107.535 71.275 107.192 72.0378 106.965C72.4937 106.829 72.6867 107.54 72.2336 107.675C71.5311 107.884 70.8722 108.196 70.201 108.486C69.7701 108.673 69.3956 108.038 69.8293 107.851ZM62.1321 107.63C61.9538 107.19 62.6665 107 62.8421 107.434C63.0443 107.933 63.2761 108.42 63.4783 108.919C63.6564 109.359 62.9439 109.549 62.7683 109.115C62.5661 108.616 62.3342 108.129 62.1321 107.63ZM54.5348 116.416C54.416 116.574 54.218 116.66 54.031 116.548C53.8744 116.454 53.7787 116.204 53.8989 116.044C54.2499 115.576 54.6054 115.114 55.0168 114.697C55.3502 114.358 55.8706 114.88 55.5374 115.217C55.1701 115.59 54.8482 115.998 54.5348 116.416ZM53.4485 67.1189C53.7865 67.3499 54.0826 67.6304 54.3714 67.9191C54.707 68.2547 54.1863 68.7755 53.8506 68.4399C53.6073 68.1966 53.3619 67.9496 53.0769 67.755C52.9122 67.6425 52.8383 67.4332 52.9448 67.2511C53.0403 67.0879 53.2843 67.0068 53.4485 67.1189ZM64.5017 78.9725C64.3106 79.3553 64.1386 79.7305 64.1278 80.1656C64.1162 80.6395 63.3798 80.6397 63.3915 80.1656C63.4056 79.5962 63.6155 79.1025 63.8659 78.6007C64.0778 78.176 64.7127 78.5495 64.5017 78.9725ZM68.5569 69.4525C68.9528 69.1886 69.321 69.8269 68.9287 70.0886C68.6106 70.3007 68.2924 70.5129 67.9743 70.725C67.5786 70.9889 67.2104 70.3507 67.6027 70.089C67.9207 69.8768 68.2388 69.6647 68.5569 69.4525ZM50.9667 86.0973C50.8991 86.5654 50.1897 86.3652 50.2566 85.9016C50.3601 85.185 50.4865 84.478 50.6808 83.78C50.808 83.3233 51.5181 83.5185 51.3908 83.9759C51.1965 84.6738 51.0701 85.3809 50.9667 86.0973ZM48.3852 94.5352C47.9113 94.5252 47.9112 93.7886 48.3852 93.7986C48.8141 93.8077 49.2358 93.9206 49.6495 94.0239C50.1097 94.1389 49.9135 94.8491 49.4537 94.7342C49.104 94.6468 48.7479 94.543 48.3852 94.5352ZM47.4322 111.533C47.2694 111.612 47.1023 111.683 46.9378 111.758C46.6082 111.909 46.2788 112.06 45.9494 112.211C45.2634 112.526 44.5777 112.843 43.8926 113.16C42.5212 113.795 41.1392 114.407 39.7645 115.036C38.3627 115.676 36.9645 116.325 35.568 116.978C34.9101 117.285 34.2473 117.581 33.5857 117.88C33.02 118.136 32.3208 118.583 31.6998 118.626C31.6678 118.628 31.6572 118.587 31.6754 118.567C31.91 118.3 32.2842 118.144 32.5926 117.971C32.9075 117.794 33.2284 117.627 33.5478 117.458C34.2136 117.105 34.8802 116.755 35.5525 116.414C36.8972 115.733 38.2445 115.058 39.592 114.383C40.9664 113.694 42.339 113.001 43.7254 112.337C44.3781 112.024 45.0315 111.713 45.6853 111.402C46.0395 111.234 46.3938 111.066 46.7482 110.898C46.9012 110.825 47.0527 110.747 47.2092 110.682C47.4171 110.596 47.5752 110.614 47.7896 110.561C48.1394 110.475 48.2908 110.919 48.0223 111.113C47.8012 111.273 47.6849 111.409 47.4322 111.533ZM42.5167 119.086C42.4412 118.902 42.5994 118.679 42.7739 118.633C42.9829 118.577 43.1505 118.705 43.2268 118.89C43.4287 119.381 43.7162 119.832 44.0863 120.212C44.4171 120.552 43.8967 121.074 43.5656 120.733C43.1018 120.256 42.7686 119.698 42.5167 119.086ZM38.9002 107.262C38.5645 106.926 39.0853 106.406 39.4209 106.741L40.3752 107.696C40.7108 108.032 40.19 108.552 39.8545 108.217L38.9002 107.262ZM29.1099 105.706C28.4238 105.907 27.6236 106.092 27.1559 106.678C27.1331 106.706 27.0947 106.669 27.1084 106.641C27.7072 105.399 29.4245 104.963 30.6135 104.528C31.4545 104.22 32.3173 103.965 33.1875 103.737C33.1005 102.744 33.3404 101.68 33.4237 100.692C33.5127 99.6367 33.5852 98.579 33.6224 97.5207C33.6604 96.4411 33.6696 95.3542 33.6341 94.2743C33.5987 93.1984 33.4591 92.1357 33.398 91.0634C33.3921 90.9597 33.5364 90.9547 33.5675 91.0404C33.9289 92.0355 34.0832 93.1377 34.2008 94.1869C34.322 95.2678 34.3622 96.3456 34.3467 97.4327C34.3307 98.5505 34.2657 99.6657 34.1765 100.78C34.1343 101.308 34.0852 101.835 34.0389 102.363C34.0036 102.766 33.9872 103.165 33.9051 103.555C34.4299 103.427 34.9559 103.305 35.4803 103.186C37.1523 102.809 38.8313 102.459 40.4963 102.05C41.3136 101.85 42.1192 101.61 42.9329 101.397C43.699 101.196 44.5077 100.953 45.2943 100.864C45.575 100.832 45.6107 101.216 45.4249 101.346C44.7856 101.795 43.9365 102.108 43.198 102.359C42.4569 102.611 41.6866 102.793 40.927 102.98C39.3428 103.37 37.7437 103.688 36.147 104.02C34.5525 104.352 32.955 104.681 31.3784 105.09C30.6192 105.287 29.8625 105.485 29.1099 105.706ZM25.3502 85.9992C24.9403 86.24 24.5702 85.6031 24.9786 85.3632C25.5131 85.0494 26.0828 84.8136 26.657 84.5836C27.0977 84.4071 27.2873 85.1198 26.8528 85.2939C26.3367 85.5005 25.8305 85.7173 25.3502 85.9992ZM23.866 113.366C23.455 113.604 23.0846 112.967 23.4944 112.73C24.0701 112.396 24.7004 112.173 25.297 111.881C25.7214 111.673 26.0941 112.309 25.6685 112.517C25.0721 112.809 24.4416 113.032 23.866 113.366ZM23.1984 97.8313C23.5959 98.2089 24.1263 98.3867 24.6264 98.5852C25.0625 98.758 24.8713 99.4701 24.4307 99.2954C23.8076 99.0482 23.1728 98.8225 22.6778 98.352C22.3333 98.0248 22.8549 97.5048 23.1984 97.8313ZM27.5953 76.7342C28.0322 76.9057 27.8408 77.6178 27.3995 77.4446C26.91 77.2525 26.4046 77.1063 25.9151 76.9143C25.4783 76.7428 25.6695 76.0308 26.1109 76.2039C26.6003 76.396 27.1058 76.5422 27.5953 76.7342ZM35.3518 68.3546C35.816 68.2763 36.0137 68.9862 35.5475 69.0649C34.9691 69.1626 34.3996 69.2769 33.851 69.4892C33.408 69.6607 33.218 68.9482 33.6553 68.7789C34.2039 68.5666 34.7735 68.4523 35.3518 68.3546ZM37.9146 88.7571C37.489 88.5477 37.8625 87.9127 38.2862 88.1211C38.7328 88.3407 39.1955 88.5105 39.6827 88.6143C40.1467 88.7131 39.9491 89.4232 39.487 89.3246C38.9386 89.2077 38.4168 89.0041 37.9146 88.7571ZM40.3351 77.2647C40.7935 77.1391 40.9873 77.8498 40.5309 77.975C39.7278 78.1951 38.901 78.3095 38.0921 78.5054C37.6311 78.617 37.436 77.9065 37.8963 77.7951C38.7053 77.5992 39.5322 77.4849 40.3351 77.2647ZM50.6036 73.6581C51.0697 73.7444 50.8711 74.4542 50.4079 74.3685C49.9149 74.2772 49.4152 74.2758 48.9153 74.2755C48.4408 74.2753 48.4416 73.5387 48.9153 73.5389C49.4832 73.5392 50.0438 73.5545 50.6036 73.6581ZM84.0933 77.5065C82.8903 77.3914 81.6855 77.2993 80.4789 77.2302C80.4226 77.2274 80.3675 77.2238 80.3113 77.2209C80.3049 77.2081 80.2966 77.1961 80.2882 77.1832C79.8944 76.605 79.6045 76.0268 79.3532 75.373C79.113 74.7505 78.8801 74.1089 78.5101 73.5472C78.0881 72.9073 77.5184 72.4066 76.894 71.9726C76.5152 72.2274 76.1637 72.5257 75.8422 72.8419C75.5037 73.1746 74.983 72.6538 75.3215 72.321C75.6073 72.04 75.9123 71.7804 76.2347 71.5459C75.8624 71.3196 75.4825 71.1069 75.112 70.8953C73.723 70.1026 72.3011 69.3696 70.8496 68.6994C70.175 68.3872 69.492 68.11 68.8045 67.8292C68.4344 67.6783 68.0691 67.4839 67.6991 67.309C67.7258 67.0474 67.6475 66.7546 67.4469 66.5825C67.2987 66.4563 67.1837 66.4094 67.0069 66.3201C66.9674 66.3062 66.9434 66.2979 66.9324 66.2933C66.9407 66.2952 66.9646 66.3026 67.0041 66.3154C67.0981 66.3588 67.1054 66.3458 67.0263 66.2777C67.0217 66.1286 66.728 65.8137 66.6609 65.66C66.4271 65.1323 66.3544 64.5743 66.0092 64.0936C65.5334 63.4316 64.7345 63.1813 63.9898 63.4058C63.9125 62.6094 63.8923 61.778 63.5922 61.0671C63.584 61.0479 63.5573 61.0395 63.5453 61.0607C63.2324 61.5939 63.2057 62.1877 63.1817 62.8027C63.1587 63.3801 63.1807 63.9703 63.2563 64.5439C63.2084 64.5807 63.1597 64.6158 63.109 64.6498C62.8716 64.8063 62.6157 64.9269 62.3469 65.0163C61.8352 65.1857 61.2986 65.2593 60.762 65.2851C59.3768 65.3514 57.9493 65.2115 56.5871 64.9739C55.2092 64.7336 53.0969 64.3726 51.8709 63.683C51.0618 63.2282 50.3155 62.6729 49.5588 62.1352C49.8332 61.2513 49.9031 60.301 49.627 59.5543C49.5939 59.465 49.454 59.4484 49.4273 59.5543C49.2542 60.267 49.2036 60.9833 48.9735 61.6877C48.9698 61.6978 48.9661 61.709 48.9625 61.719C48.8907 61.6703 48.8189 61.6223 48.7471 61.5744C48.5814 61.4649 48.3559 61.5469 48.2565 61.7033C46.6669 64.2087 44.1497 64.3524 41.5063 64.8C38.6134 65.2897 35.7059 65.8182 32.9245 66.7767C30.2645 67.6939 27.7224 69.029 25.7085 71.0234C25.2526 71.4749 24.8263 71.956 24.4239 72.4583C24.8132 72.5074 25.1993 72.5838 25.5805 72.7036C26.0318 72.8454 25.8378 73.5563 25.3847 73.4139C24.8949 73.2599 24.3996 73.1838 23.8993 73.1458C22.5309 75.0185 21.464 77.1419 20.5414 79.2319C18.7717 83.2391 17.6198 87.5067 17.0898 91.8515C17.3808 91.677 17.6771 91.5108 17.9807 91.3562C18.4026 91.1416 18.7748 91.7773 18.3524 91.9923C17.8833 92.2309 17.4277 92.494 16.9863 92.7792C16.7935 94.6811 16.7188 96.5952 16.764 98.5062C16.8717 103.062 17.4866 107.752 18.8773 112.098C19.5593 114.232 20.4631 116.348 21.8097 118.151C22.419 118.967 23.1111 119.704 23.9266 120.318C24.3215 120.616 24.7393 120.883 25.1802 121.107C25.7481 121.398 26.4881 121.494 26.9777 121.906C27.1388 122.041 27.2631 122.22 27.357 122.421C27.3026 122.804 27.2962 123.188 27.4011 123.571C27.4343 123.691 27.5245 123.788 27.6358 123.835C27.6377 123.869 27.6377 123.901 27.6377 123.932C27.6377 123.947 27.6598 123.951 27.6625 123.936C27.6671 123.907 27.6717 123.879 27.6763 123.849C27.7122 123.861 27.75 123.867 27.7886 123.867C29.1867 123.872 30.5865 123.838 31.9865 123.791C31.8782 123.459 31.761 123.13 31.6484 122.798C31.4955 122.347 32.2069 122.156 32.3584 122.602C32.4901 122.99 32.6278 123.375 32.7503 123.764C34.2503 123.708 35.7498 123.641 37.2467 123.592C40.4303 123.486 43.6131 123.451 46.7976 123.383C51.743 123.279 56.7244 123.064 61.6774 123.274C61.8487 122.91 62.0404 122.555 62.2222 122.196C62.4367 121.773 63.0718 122.146 62.858 122.568C62.7317 122.817 62.6008 123.063 62.4764 123.312C63.4796 123.364 64.4817 123.433 65.4817 123.527C67.1882 123.687 68.8781 123.972 70.5827 124.149C72.3157 124.329 74.0112 124.297 75.7305 124.01C76.0398 123.959 76.222 123.772 76.2975 123.54C76.3001 123.539 76.3021 123.537 76.3038 123.534C76.3922 123.431 76.4751 123.346 76.5606 123.271C76.6629 123.205 76.7733 123.149 76.9031 123.099C77.1452 123.007 77.3974 122.951 77.6532 122.913C77.9349 122.871 78.2202 122.867 78.5018 122.832C78.7392 122.802 78.9712 122.756 79.2031 122.701C79.6201 122.602 80.0159 122.472 80.4098 122.3C80.7531 122.15 81.0632 121.934 81.356 121.699C81.9616 121.256 82.4862 120.691 82.9446 120.104C83.2115 119.76 83.4628 119.404 83.6911 119.033C84.0887 118.39 84.4274 117.723 84.7698 117.049C84.894 116.85 85.0074 116.646 85.1111 116.437C84.4419 116.24 83.7664 116.079 83.057 116.068C82.5828 116.06 82.5829 115.324 83.057 115.331C83.8705 115.344 84.6401 115.534 85.4047 115.761C85.4419 115.662 85.4777 115.562 85.5107 115.461C85.6018 115.25 85.6773 115.034 85.7399 114.815C85.7766 114.715 85.8135 114.616 85.8503 114.516C85.9332 114.172 86.016 113.827 86.0998 113.481C86.2663 112.929 86.3979 112.368 86.4946 111.8C86.5756 111.426 86.6382 111.05 86.6805 110.669C86.8094 109.745 86.9143 108.823 86.9217 107.89C86.9106 107.314 86.8738 106.74 86.8112 106.168C86.7845 105.779 86.7394 105.393 86.6787 105.009C86.5995 104.438 86.5213 103.872 86.3897 103.309C86.2912 102.928 86.1927 102.547 86.0942 102.165C85.8485 101.371 85.5586 100.592 85.2244 99.8303C85.206 99.7825 85.113 99.6774 85.0569 99.6765C85.0146 99.6756 84.9556 99.7142 84.9749 99.7659C84.9769 99.7704 84.9786 99.7759 84.9805 99.7805C84.9612 99.7373 84.9428 99.6931 84.9235 99.6498C84.9069 99.6093 84.8425 99.5283 84.7928 99.5293C84.79 99.5293 84.7872 99.5293 84.7836 99.5301C84.7965 99.521 84.8084 99.5089 84.8204 99.4952C85.1508 99.1039 85.3653 98.5891 85.6018 98.1361C85.7979 97.7622 85.9829 97.3681 86.0362 96.9455C86.0831 96.5745 86.0197 96.2089 85.7868 95.9087C85.5217 95.5671 85.0229 95.4069 85.2999 94.9134C85.6147 94.3517 86.0777 93.8646 85.6165 93.2266C85.3818 92.9015 85.01 92.723 84.7339 92.4402C84.4163 92.1133 84.2653 91.676 84.2737 91.2294C84.293 91.2405 84.3188 91.235 84.328 91.2073C84.5949 90.4007 84.4016 89.5151 84.1283 88.7296C83.9791 88.3033 83.6634 88.1863 83.2962 88.1652C84.8866 85.0576 86.3749 81.9003 87.7013 78.6702C87.7454 78.5643 87.7887 78.4585 87.8319 78.3526C87.8964 78.1942 87.7602 77.9834 87.6028 77.9483C86.4559 77.697 85.2613 77.6169 84.0933 77.5065Z" fill="black"/>
<path fill-rule="evenodd" clip-rule="evenodd" d="M52.1849 24.1857C66.106 23.4994 67.0783 27.5556 68.99 30.1416C69.9386 31.4249 72.388 33.3255 72.7943 37.7144C73.0764 40.761 71.2809 44.2725 71.2809 46.9949C71.2809 48.3845 72.978 51.3678 72.1879 53.3931C70.4294 57.9011 66.7059 62.9041 61.9612 62.9041C57.2164 62.9041 48.4578 60.2825 43.215 52.757C41.4977 50.292 38.2638 24.872 52.1849 24.1857Z" fill="#D08B5B"/>
<path fill-rule="evenodd" clip-rule="evenodd" d="M72.4477 47.2668C72.1436 46.9307 71.9076 46.6545 71.8286 46.1923C71.7955 45.9998 71.7809 45.8019 71.7744 45.603C72.9951 43.8922 74.1819 39.8513 74.1817 37.6411C74.1815 34.5229 73.0345 31.5227 71.1517 29.0413C67.4815 24.2081 61.3719 21.7303 55.3928 21.9247C49.6671 22.1097 43.577 24.2256 40.0053 28.7485C28.1549 43.7547 38.1007 60.1457 45.3852 63.5559C46.0193 63.8528 48.0673 63.7496 47.782 63.1157C46.9623 61.2945 46.3166 57.9403 46.1659 57.1852C46.3992 57.3427 46.6343 57.4965 46.8704 57.6558C47.2883 57.9365 47.8485 58.2579 48.3739 58.1649C48.3987 58.1603 48.4143 58.1336 48.4152 58.1106C48.4391 57.6161 48.0864 57.1078 47.776 56.7552C47.3452 56.2653 46.9356 55.7635 46.4718 55.3041C46.2743 55.1079 46.0741 54.9136 45.8739 54.7194C45.8481 53.5537 45.9262 52.3826 46.1347 51.2104C46.4957 49.1783 47.1184 47.1987 47.8338 45.2503C48.4318 44.8083 49.0122 44.3434 49.5495 43.835C50.8436 42.6113 51.831 41.1143 52.6778 39.5398C52.6879 39.5351 52.6989 39.5296 52.709 39.525C54.3503 38.7598 55.9778 37.9653 57.5925 37.1458C58.4255 36.7231 59.2531 36.2903 60.0806 35.8577C60.5306 35.6218 60.9945 35.4073 61.4546 35.1854C61.3306 35.8226 61.1635 36.4505 60.9605 37.0684C60.7933 37.5758 61.304 37.9505 61.7559 37.8667C63.2943 37.5813 64.7813 37.0077 66.1195 36.1956C66.7826 35.7932 67.4136 35.3282 67.9986 34.818C68.5837 35.6918 69.2946 36.5113 70.0119 37.2167C70.4959 37.6927 71.002 38.1457 71.5274 38.5748C71.2895 40.2165 71.0856 41.8618 70.8275 43.5C70.6925 44.3563 70.5299 45.2125 70.428 46.0734C70.3168 47.0117 70.6263 47.6801 71.2426 48.3661C72.1041 49.3247 72.1032 50.7113 71.7735 51.9019C71.7331 52.0492 71.6826 52.1929 71.6302 52.3355C71.6192 52.365 71.5871 52.4451 71.5751 52.4765C71.5751 52.4774 71.5751 52.4783 71.5742 52.4801C71.5742 52.481 71.5733 52.482 71.5733 52.4828C71.5724 52.4828 71.5724 52.4838 71.5714 52.4848V52.4865V52.4874L71.5705 52.4884C71.5319 52.5786 71.4906 52.667 71.4493 52.7554C71.261 53.1541 71.0507 53.5436 70.8321 53.9267C69.7575 55.8178 68.4 57.5479 66.8533 59.0746C66.1332 59.7854 65.3847 60.4466 64.5388 60.988C64.3606 61.1013 64.1788 61.2107 63.9923 61.3111C63.8922 61.3654 63.7893 61.4162 63.6865 61.4676C63.5358 61.5422 63.5983 61.5127 63.5064 61.5496C63.3402 61.615 63.1703 61.672 62.9967 61.7172C62.9039 61.7411 62.8103 61.7614 62.7157 61.7788C62.7147 61.7788 62.7129 61.7798 62.7101 61.7798C62.7092 61.7798 62.7083 61.7807 62.7074 61.7798C62.7065 61.7807 62.7046 61.7807 62.7028 61.7807C62.6679 61.7835 62.6054 61.789 62.5935 61.789C61.2746 61.7937 59.9667 61.616 58.69 61.2873C57.9984 61.1086 57.3078 60.8922 56.6575 60.5948C56.3268 60.4429 56.0035 60.2744 55.694 60.0837C55.5553 59.9982 55.424 59.895 55.278 59.8205C55.0594 59.7081 54.8454 59.7201 54.6093 59.71C54.2493 59.6952 53.994 60.0728 54.0821 60.4042C54.1896 60.8084 54.3586 61.0468 54.7058 61.2873C54.9831 61.4788 55.277 61.6481 55.5765 61.8019C56.2286 62.138 56.9183 62.4114 57.6164 62.6352C58.9233 63.0532 60.2992 63.3101 61.6677 63.4041C62.6642 63.4722 63.5276 63.3386 64.435 62.9178C65.393 62.4731 66.2517 61.8092 67.0462 61.1205C68.8252 59.5791 70.3729 57.7091 71.6853 55.758C72.9188 53.9238 73.8759 51.9267 73.5608 49.6497C73.435 48.7363 73.0639 47.95 72.4477 47.2668" fill="black"/>
<path fill-rule="evenodd" clip-rule="evenodd" d="M62.3652 55.8834C61.7464 55.6309 61.1944 55.2097 60.7908 54.6717C60.6505 54.4846 60.6141 54.2871 60.6435 54.1064C60.6766 53.9033 60.7967 53.7192 60.9606 53.5957C61.1249 53.4718 61.3305 53.4107 61.5292 53.4419C61.7019 53.4689 61.8738 53.5635 62.0099 53.7597L62.0383 53.7989C62.2783 54.1237 62.5909 54.3901 62.9472 54.5619C63.2906 54.7274 63.6746 54.8047 64.0721 54.7598C64.829 54.6742 65.3507 54.2647 65.9052 53.7086C65.974 53.6384 66.0427 53.566 66.1118 53.4924C66.1555 53.4257 66.2161 53.3828 66.2833 53.3603C66.358 53.3354 66.4424 53.3368 66.5198 53.3638C66.5944 53.3898 66.6611 53.4392 66.7059 53.5049C66.7484 53.5674 66.7725 53.6445 66.7646 53.7332C66.7139 54.3095 66.4127 54.8239 65.9849 55.2277C65.5097 55.6763 64.8799 55.9866 64.2869 56.0954C63.6336 56.2153 62.9679 56.1294 62.3652 55.8834ZM64.595 46.9926C65.2901 47.4152 66.3491 48.4007 65.6014 49.4485C64.7213 50.3723 63.4541 49.3131 62.8297 48.834C62.2507 48.4628 61.6002 49.4176 62.1374 49.8512C66.6495 53.1931 68.4806 47.1031 64.9466 46.4957C64.5575 46.4287 64.4129 46.8619 64.595 46.9926ZM56.5093 43.105C56.5861 42.1515 58.0378 41.9349 58.1822 42.8785C58.3115 43.7238 58.1593 44.5003 57.7787 45.2613C57.415 45.9883 56.501 45.6491 56.4319 44.9871C56.3392 44.0997 56.4615 43.6982 56.5093 43.105ZM67.56 42.6829C67.7624 42.4177 68.0546 42.2367 68.4047 42.339C69.4986 42.6588 69.1762 44.2124 68.792 44.9686C68.5833 45.3792 67.9085 45.4834 67.6036 45.1218C67.1066 44.5321 66.8686 43.3546 67.5004 42.7738C67.5175 42.7437 67.5366 42.7134 67.56 42.6829ZM57.7633 38.9325L57.9361 38.9022C58.4707 38.8098 59.1353 38.7209 59.5135 39.1508C59.714 39.3788 59.783 39.8025 59.5135 40.0207C59.0393 40.4047 58.515 40.2559 57.9467 40.2884C57.4784 40.3153 57.0284 40.3928 56.5773 40.5218C55.5877 40.8048 54.7813 41.3213 53.9361 41.8885C53.8252 41.9629 53.712 41.821 53.7649 41.7172C54.2528 40.7612 55.1983 39.9759 56.1454 39.4972C56.6509 39.2417 57.2041 39.0297 57.7633 38.9325ZM66.5627 38.5043L66.695 38.5313C68.1342 38.8323 70.0042 39.4335 70.6857 40.8477C70.7117 41.0477 70.6843 41.0906 70.6619 41.1186L70.6545 41.1279C70.6361 41.1518 70.6215 41.1848 70.5348 41.212C70.5108 41.2062 70.4865 41.2002 70.4619 41.1937C70.1495 41.1118 69.9023 40.999 69.6631 40.8819L69.4036 40.754C69.1026 40.6064 68.7989 40.4641 68.4771 40.3591C67.7902 40.135 67.0838 39.9771 66.3664 39.8928C66.2109 39.8745 66.0612 39.822 65.9431 39.7321C65.8309 39.6467 65.7453 39.5284 65.7062 39.3713C65.6556 39.1679 65.6702 39.0139 65.7793 38.8304C65.8613 38.6926 65.9787 38.597 66.1134 38.5422C66.2508 38.4863 66.4072 38.4731 66.5627 38.5043Z" fill="black"/>
</svg>
