<svg width="328" height="312" viewBox="0 0 328 312" fill="none" xmlns="http://www.w3.org/2000/svg">
<path fill-rule="evenodd" clip-rule="evenodd" d="M174.997 8.28167C207.755 1.17339 243.961 -6.58677 273.09 9.98212C303.197 27.1071 325.636 60.6867 327.833 95.2166C329.906 127.812 295.964 149.782 283.915 180.146C273.057 207.509 280.02 240.614 261.161 263.234C239.638 289.05 208.538 308.234 174.997 310.788C140.244 313.434 105.195 299.768 78.7253 277.125C53.4243 255.483 46.4766 221.424 34.3168 190.451C21.2171 157.085 -10.439 121.981 5.13917 89.6939C21.0819 56.6516 70.54 62.619 103.653 46.7482C128.629 34.7771 147.924 14.1561 174.997 8.28167Z" fill="#043CAA"/>
</svg>
