<svg width="105" height="142" viewBox="0 0 105 142" fill="none" xmlns="http://www.w3.org/2000/svg">
<path fill-rule="evenodd" clip-rule="evenodd" d="M22.5758 85.9924C22.865 85.1982 22.4427 84.406 22.2085 83.6376C21.3763 80.9728 23.6524 74.2515 25.2442 74.1533C25.8264 72.6466 27.3801 72.0215 28.603 71.1538C29.9906 70.2874 31.3405 69.2922 32.7837 68.5326C32.864 67.8149 33.7339 67.637 34.2659 68.1504C35.7271 67.2411 37.4792 67.41 39.0455 66.8143C40.2356 64.8898 40.3249 62.8663 40.64 61.0097C40.7774 60.2004 40.6314 59.4196 41.1842 58.698C43.0411 56.0854 50.3782 54.9525 53.0834 56.5008C54.5395 55.5923 54.5746 57.2377 54.8059 58.2532C55.063 58.7613 55.202 59.3367 55.159 59.9429C55.8484 61.3834 56.4329 63.1851 57.8817 64.2609C59.72 65.626 62.5483 66.1449 64.3406 66.8143C64.7426 66.4273 64.8655 65.8677 64.8655 65.8677C67.6433 66.4718 70.3392 67.5337 72.6666 69.1919C75.3107 69.9655 77.1728 72.1168 78.5194 74.4236C78.6678 74.6668 78.7027 74.9148 78.6594 75.1425C82.8002 81.2146 84.7765 88.4839 85.0541 95.8259C87.7169 97.4246 83.7884 111.786 82.8739 114.768C82.873 114.768 82.8721 114.767 82.8711 114.767C82.2779 115.818 81.6042 118.816 80.1194 118.584C79.1009 119.736 77.4778 119.51 76.0956 119.598C76.3207 120.462 76.2101 121.45 75.9422 122.304C75.6253 123.32 74.0702 123.355 73.8496 122.247C60.0856 124.922 45.963 122.787 32.0443 123.189C28.0199 123.218 23.9959 123.342 19.9812 123.629C19.4159 123.669 18.8427 123.091 18.8812 122.528C19.7444 113.342 20.555 101.257 21.5202 92.16C21.7491 90.0854 21.9301 87.9881 22.5758 85.9924Z" fill="#D08B5B"/>
<path fill-rule="evenodd" clip-rule="evenodd" d="M64.851 65.929C64.8561 65.9088 64.8609 65.8884 64.8654 65.8679C67.6432 66.472 70.3391 67.5339 72.6664 69.1921C75.3106 69.9657 77.1727 72.117 78.5193 74.4238L78.5372 74.4542C78.6704 74.6876 78.7008 74.9244 78.6593 75.1427C82.8001 81.2148 84.7763 88.4841 85.0539 95.8261C87.7168 97.4248 83.7883 111.787 82.8738 114.768L82.871 114.767C82.7232 115.029 82.5704 115.412 82.4012 115.835C81.8916 117.112 81.2341 118.758 80.1193 118.584C79.2913 119.521 78.0636 119.546 76.8907 119.571C76.6209 119.576 76.354 119.582 76.0955 119.598C76.3206 120.462 76.21 122.003 75.9421 122.857C75.6252 123.873 31.6611 124.701 19.9811 123.629C19.417 123.577 18.8426 123.092 18.8811 122.529C19.2436 118.67 19.5968 114.301 19.9561 109.857C20.4524 103.718 20.9602 97.4365 21.5201 92.1602C21.542 91.9617 21.5634 91.763 21.5849 91.5642C21.7879 89.6852 21.9918 87.7974 22.5757 85.9926C22.8066 85.3584 22.5839 84.7254 22.3654 84.1049C22.3104 83.9483 22.2555 83.7926 22.2084 83.6378C21.3762 80.973 23.4963 74.2677 25.0164 74.168L25.2441 74.1535C25.6913 72.9961 26.7117 72.359 27.715 71.7325C27.9879 71.5621 28.2595 71.3925 28.518 71.2135L28.6028 71.154C29.0759 70.8587 29.5445 70.5484 30.0139 70.2375C30.9216 69.6365 31.8323 69.0335 32.7836 68.5328C32.8638 67.8151 33.7338 67.6372 34.2658 68.1506C34.4983 68.0059 34.7381 67.8886 34.9833 67.7911L35.0805 69.1274C36.7392 75.3123 41.3545 78.7535 48.9264 79.4511C60.2842 80.4976 65.4038 69.1104 65.4038 67.9596C65.4038 67.4549 65.2371 66.8178 64.9036 66.0484L64.851 65.929ZM39.8093 86.6985C38.1172 86.2852 36.1096 85.8494 34.4542 85.5746C33.6253 85.437 32.8927 85.3412 32.3349 85.3076C32.0552 85.2908 31.8291 85.2903 31.6611 85.3055C31.5074 85.3194 31.4448 85.3434 31.4309 85.3487C31.4278 85.3499 31.4271 85.3502 31.4284 85.3492C31.1757 85.5452 30.9621 85.8302 30.8074 86.0807C30.7315 86.2036 30.6728 86.3131 30.6334 86.3914L30.6277 86.4028C30.6337 86.4194 30.6405 86.4374 30.6481 86.4568C30.6889 86.5615 30.7501 86.6983 30.8322 86.8325C31.0083 87.12 31.2176 87.2984 31.4539 87.2984C31.6943 87.2984 32.271 87.3799 32.9601 87.4912C33.6643 87.6049 34.5236 87.7562 35.3553 87.9072C36.1873 88.0583 36.9931 88.2094 37.5909 88.3227C37.8898 88.3793 38.1367 88.4265 38.3089 88.4596L38.5084 88.4979L38.5609 88.5081L38.5743 88.5107L38.5777 88.5113L38.5786 88.5115L38.5788 88.5115C38.5788 88.5115 38.5789 88.5115 38.5659 88.5787L38.5789 88.5115L38.6201 88.5195L38.6579 88.5377L40.4994 89.4199L40.3306 90.0401L40.3582 89.7146C40.3306 90.0401 40.3306 90.0401 40.3306 90.0401L40.3304 90.0401L40.3298 90.0401L40.3272 90.0398L40.317 90.039L40.2766 90.0356L40.1211 90.0227C39.9859 90.0116 39.7904 89.9958 39.5489 89.9767C39.0659 89.9386 38.3995 89.8878 37.6656 89.8371C36.1942 89.7353 34.4638 89.6344 33.3938 89.6344L33.16 89.6343C32.0854 89.6339 30.6076 89.6333 29.3647 89.7029C28.6947 89.7403 28.1085 89.7975 27.6954 89.882C27.5201 89.9179 27.3915 89.9557 27.3058 89.9917C27.3556 90.0425 27.4323 90.1036 27.5397 90.1724C27.7832 90.3283 28.1308 90.4901 28.525 90.6418C29.3137 90.9453 30.2204 91.1828 30.6946 91.248C31.2138 91.3194 32.6602 91.6094 33.9607 91.8778C34.6145 92.0128 35.2366 92.1434 35.6952 92.2402C35.9245 92.2886 36.113 92.3286 36.2441 92.3565L36.3959 92.3888L36.4356 92.3973L36.4458 92.3995L36.4484 92.4L36.4491 92.4002L36.4492 92.4002C36.4492 92.4002 36.4492 92.4002 36.4451 92.4194L36.4493 92.4002L36.3924 93.0463L28.6378 93.3177C28.6259 93.3305 28.6132 93.3446 28.5999 93.3598C28.5287 93.4409 28.4547 93.5389 28.4095 93.6315C28.3732 93.7059 28.3718 93.7421 28.3722 93.7522C28.3847 93.7654 28.431 93.8016 28.5686 93.8324C29.076 93.9459 30.1186 94.173 31.0354 94.3719C31.4936 94.4714 31.92 94.5637 32.2319 94.6312L32.6034 94.7115L32.7054 94.7335L32.732 94.7393L32.7388 94.7407L32.7405 94.7411L32.7409 94.7412L32.741 94.7412C32.741 94.7412 32.741 94.7412 32.718 94.8478L32.7411 94.7412L32.9295 94.7819L32.9849 94.9661L32.9849 94.9663L32.985 94.9663L32.985 94.9664L32.985 94.9666L32.9857 94.9688L32.9897 94.9812C32.9934 94.9928 32.9994 95.0109 33.0077 95.0345C33.0242 95.0818 33.0498 95.1514 33.085 95.237C33.1558 95.4087 33.2641 95.6419 33.414 95.8874C33.7189 96.3869 34.1679 96.8924 34.7803 97.0863C35.3019 97.2515 35.8791 97.3627 36.445 97.4717C36.6394 97.5091 36.8326 97.5463 37.0216 97.5854C37.3824 97.6599 37.7298 97.7419 38.0225 97.8469C38.307 97.949 38.5868 98.0887 38.7679 98.3062C38.9032 98.4688 39.0561 98.7005 39.2129 98.938L39.2219 98.9516C39.3868 99.2014 39.5645 99.4706 39.758 99.7264C39.9519 99.9828 40.1538 100.215 40.3621 100.393C40.5715 100.571 40.77 100.679 40.957 100.715C41.498 100.817 43.1187 101.24 44.5856 101.632C45.3231 101.829 46.0277 102.02 46.5478 102.162C46.6684 102.195 46.779 102.225 46.8779 102.252C46.9923 102.283 47.0909 102.31 47.1709 102.332L47.1804 102.334C47.2224 102.272 47.2732 102.195 47.331 102.106C47.5017 101.84 47.732 101.464 47.9692 101.018C48.4477 100.119 48.9377 98.972 49.0478 97.9089C49.1634 96.7918 49.2213 95.7256 49.2503 94.9381C49.2648 94.5446 49.272 94.2212 49.2756 93.9965C49.2767 93.9304 49.2774 93.8728 49.278 93.8245L48.4207 93.2701L48.3851 93.247L48.3566 93.2157L44.3769 88.8461L44.369 88.8382C44.3609 88.83 44.3474 88.8169 44.3284 88.7991C44.2904 88.7637 44.2305 88.7101 44.1472 88.6421C43.9805 88.5061 43.7203 88.3126 43.3551 88.0925C42.6252 87.6526 41.4738 87.105 39.8093 86.6985ZM29.9618 86.4689C29.9618 86.4688 29.9617 86.4687 30.2765 86.3811L29.9617 86.4687L29.9308 86.3577L29.9764 86.2518L30.2765 86.3811C29.9764 86.2518 29.9765 86.2517 29.9765 86.2517L29.9766 86.2515L29.9767 86.2512L29.9771 86.2502L29.9783 86.2475L29.9823 86.2384L29.9966 86.2071C30.0089 86.1806 30.0267 86.1433 30.0498 86.0974C30.0959 86.0058 30.1637 85.8793 30.2514 85.7373C30.4239 85.458 30.6861 85.098 31.0278 84.8329C31.1834 84.7121 31.4077 84.6722 31.6022 84.6546C31.8166 84.6352 32.0794 84.6376 32.3742 84.6553C32.9653 84.6909 33.7238 84.791 34.5612 84.9299C36.238 85.2083 38.2626 85.648 39.9644 86.0637C41.6939 86.4861 42.9067 87.0592 43.6925 87.5328C44.0852 87.7695 44.3707 87.981 44.5603 88.1358C44.6552 88.2132 44.726 88.2763 44.7743 88.3214C44.7984 88.3439 44.8169 88.3619 44.8299 88.3749L44.8454 88.3905L44.8501 88.3954L44.8517 88.397L44.8523 88.3977L44.8526 88.398C44.8527 88.3981 44.8528 88.3982 44.622 88.6163L44.8529 88.3982L44.8569 88.4026L48.8112 92.7443L49.7834 93.3731L49.9327 93.4697V93.6476V93.6477V93.648L49.9327 93.6493L49.9327 93.654L49.9327 93.6722L49.9323 93.7421C49.9318 93.8032 49.9309 93.8927 49.929 94.007C49.9254 94.2356 49.918 94.5635 49.9033 94.9622C49.874 95.7589 49.8154 96.8403 49.6978 97.9762C49.5746 99.1661 49.037 100.403 48.546 101.325C48.2986 101.79 48.0587 102.183 47.8805 102.459C47.7913 102.598 47.7174 102.708 47.6654 102.783C47.6394 102.821 47.6189 102.85 47.6048 102.87L47.5883 102.894L47.5838 102.9L47.5826 102.902L47.5822 102.902L47.5821 102.902C47.582 102.902 47.582 102.902 47.3174 102.711L47.582 102.902L47.4491 103.086L47.2308 103.026L47.3174 102.711C47.2308 103.026 47.2308 103.026 47.2307 103.026L47.2305 103.026L47.2298 103.026L47.2269 103.025L47.2154 103.022L47.1704 103.009L46.9984 102.962C46.8496 102.921 46.6359 102.863 46.3762 102.792C45.8567 102.651 45.1531 102.46 44.4169 102.264C42.9361 101.868 41.3462 101.454 40.8354 101.357C40.4964 101.293 40.1963 101.11 39.9382 100.89C39.679 100.669 39.4445 100.395 39.2368 100.121C39.0298 99.8468 38.8417 99.5619 38.6791 99.3155L38.6765 99.3116C38.5082 99.0567 38.3749 98.8555 38.2656 98.7243C38.1995 98.6448 38.0569 98.5535 37.8017 98.462C37.5547 98.3733 37.2451 98.2988 36.8895 98.2254C36.7196 98.1903 36.5392 98.1556 36.3527 98.1197L36.3525 98.1196C35.7775 98.009 35.1445 97.8871 34.583 97.7093C33.7507 97.4458 33.1949 96.7826 32.8562 96.2279C32.6843 95.9463 32.5611 95.6809 32.4808 95.4859C32.4587 95.4322 32.4397 95.3836 32.4238 95.3412L32.0937 95.2699C31.7818 95.2024 31.3552 95.11 30.8968 95.0106C29.9806 94.8117 28.9358 94.5842 28.426 94.4701C28.1242 94.4026 27.8705 94.2598 27.7649 93.9962C27.6653 93.7477 27.745 93.503 27.8223 93.3448C27.9042 93.177 28.0209 93.0287 28.1087 92.9287C28.154 92.8771 28.1947 92.8348 28.2246 92.8049C28.2396 92.79 28.2519 92.778 28.2609 92.7695L28.2718 92.7592L28.2752 92.7561L28.2763 92.755L28.2767 92.7546L28.2769 92.7545C28.277 92.7544 28.2771 92.7543 28.4973 92.9957L28.2771 92.7543L28.3658 92.6734L28.4859 92.6691L33.6806 92.4873C32.4113 92.226 31.079 91.9605 30.6056 91.8954C30.0688 91.8216 29.1122 91.568 28.2903 91.2516C27.8791 91.0934 27.4847 90.9131 27.1873 90.7227C27.0393 90.6279 26.9018 90.5221 26.7977 90.4049C26.6969 90.2913 26.5967 90.1318 26.5967 89.9357C26.5967 89.6526 26.8272 89.4995 26.9648 89.4297C27.1259 89.348 27.3365 89.2884 27.5643 89.2418C28.0261 89.1473 28.6514 89.0882 29.3282 89.0504C30.5905 88.9798 32.086 88.9804 33.1573 88.9808H33.1575L33.3938 88.9809C34.4895 88.9809 36.2414 89.0835 37.7107 89.1851C38.0354 89.2076 38.347 89.2301 38.6353 89.2514L38.4135 89.1452L38.3847 89.1396L38.1858 89.1013C38.014 89.0684 37.7675 89.0213 37.4692 88.9647C36.8725 88.8517 36.0684 88.7009 35.2385 88.5502C34.4084 88.3994 33.5539 88.249 32.8559 88.1363C32.1429 88.0212 31.6289 87.9519 31.4539 87.9519C30.8592 87.9519 30.4798 87.5083 30.2749 87.1738C30.1666 86.9969 30.0893 86.8227 30.0392 86.6941C30.0139 86.6294 29.9951 86.5749 29.9824 86.5359C29.976 86.5163 29.9711 86.5005 29.9677 86.4892L29.9637 86.4754L29.9624 86.4712L29.962 86.4697L29.9619 86.4692L29.9618 86.4689ZM27.2104 90.0435C27.2107 90.0435 27.213 90.0419 27.2163 90.0383C27.2118 90.0417 27.2101 90.0435 27.2104 90.0435ZM28.3682 93.747C28.3681 93.747 28.3685 93.7479 28.3698 93.7495C28.3689 93.7477 28.3683 93.7469 28.3682 93.747Z" fill="#FFCF77"/>
<path fill-rule="evenodd" clip-rule="evenodd" d="M36.3285 85.244L32.283 76.0768C32.283 76.0768 31.6717 74.5193 30.6337 74.5193C29.5957 74.5193 20.1835 74.8142 20.1835 74.8142C20.1835 74.8142 18.2573 75.0599 18.8793 76.0768C19.5012 77.0938 28.7497 96.0167 28.7497 96.0167H32.6721V95.0606L28.3052 93.8393C28.3052 93.8393 27.5104 92.9957 28.7497 92.9957C29.9889 92.9957 37.1985 92.7198 37.1985 92.7198L30.324 91.7107L26.9234 90.4024L27.4236 89.7146L30.324 89.3002L39.7693 89.7146L37.1985 88.8449L31.4538 87.6251C31.4538 87.6251 30.324 86.8292 30.324 86.0486C30.324 85.268 33.3507 84.9678 33.3507 84.9678L36.3285 85.244Z" fill="white"/>
<path fill-rule="evenodd" clip-rule="evenodd" d="M54.5788 57.0678C54.5393 56.9601 54.3784 56.9744 54.3754 57.0954C54.3119 59.6784 54.9547 62.8348 57.0209 64.5796C58.0815 65.4752 59.4837 65.8851 60.7714 66.3561L60.9166 66.4097L63.1917 67.2575C63.7951 67.4824 64.446 67.8283 64.979 67.5107C64.5477 68.5806 64.1856 69.68 63.6604 70.7111C63.0065 71.9948 62.216 73.1692 61.2485 74.2374C57.4153 78.4691 51.349 79.7599 45.9051 78.52C43.1018 77.8815 40.374 76.6714 38.4615 74.4643C37.008 72.7867 36.1729 70.5351 35.9762 68.3141C36.0337 68.3233 36.094 68.323 36.1559 68.3093C36.8447 68.159 37.5401 67.7897 38.1462 67.4275L38.2045 67.3924C38.7877 67.0413 39.3955 66.6388 39.814 66.0931C40.2297 65.5513 40.6659 63.7837 40.6659 63.7837C40.7847 63.1194 40.8962 61.7959 40.8771 61.1244C40.8754 61.0611 40.5944 61.0237 40.5644 61.0895C40.3047 61.6596 40.2208 62.9122 40.0203 63.5055L39.9799 63.6239C39.7659 64.2435 39.5824 64.9979 39.1387 65.4988C38.3056 66.4394 37.0487 66.8375 35.9268 67.3092C35.8463 66.2462 34.1491 66.2709 34.1706 67.3796C34.1718 67.4398 34.1745 67.4996 34.1766 67.5595C34.0427 67.6332 33.914 67.7173 33.7937 67.7986L33.6763 67.8783C33.2319 68.1807 32.7841 68.4681 32.3109 68.7246C31.3949 69.2213 30.425 69.6152 29.4864 70.066C28.5368 70.5223 27.6487 71.0658 26.8195 71.7163C26.4301 72.0218 26.0566 72.3471 25.7025 72.6928L25.6064 72.7876C25.2692 73.1235 24.8305 73.4991 24.6385 73.9405C24.5961 74.0378 24.384 74.2642 24.2689 74.2718C22.4856 74.3887 20.706 74.5539 18.9338 74.8015C18.475 74.8656 18.2936 75.1022 18.4632 75.4847C19.046 76.7994 21.3276 82.0497 21.9343 83.4587C21.8634 84.4938 21.9592 85.7125 21.8953 86.7479C21.8019 88.2588 21.6796 89.7692 21.5329 91.276C21.0083 96.6658 20.213 102.029 19.4943 107.396C19.1346 110.081 18.8067 112.771 18.483 115.461C18.3195 116.821 18.1808 118.182 18.0741 119.547C18.0296 120.116 17.9892 120.685 17.9537 121.255L17.923 121.76C17.8806 122.396 17.7834 123.003 18.1767 123.548C18.355 123.796 18.7622 123.935 18.9966 123.654C19.2913 123.301 19.4008 123.036 19.429 122.572C19.4505 122.217 19.4557 121.86 19.4719 121.504C19.5069 120.733 19.5508 119.962 19.6024 119.191C19.7052 117.651 19.8225 116.112 19.9585 114.574C20.435 109.183 21.3406 103.832 21.9432 98.4539C22.2469 95.7426 22.4626 93.0263 22.5769 90.3C22.634 88.9385 22.6547 87.5772 22.6413 86.2146C22.6362 85.7056 22.6121 85.199 22.5772 84.6935C23.4799 86.745 24.429 88.7768 25.4212 90.7815L25.6563 91.2563C26.2851 92.5234 26.9308 93.7953 27.6865 94.9899L27.8164 95.1936C28.1226 95.6788 28.5408 96.4438 29.0991 96.597C29.488 96.7037 29.9632 96.6286 30.3619 96.6209C30.7576 96.6134 31.1537 96.6117 31.5491 96.5957C31.9927 96.5778 32.4159 96.5195 32.8445 96.4039C32.9157 96.3847 32.9831 96.3639 33.0445 96.3374C33.4763 97.0444 34.2101 97.5828 34.9603 97.8965C35.5612 98.1478 36.191 98.3201 36.8219 98.4795L37.0446 98.5354C37.7209 98.704 38.4946 98.7841 38.876 99.4374L38.9646 99.5889C39.2481 100.071 39.5202 100.494 39.9896 100.84C40.4948 101.212 41.0933 101.446 41.6895 101.628C42.3001 101.814 42.9248 101.957 43.5447 102.11L43.7136 102.152C44.1228 102.254 44.5357 102.348 44.9425 102.46C45.116 102.507 45.2926 102.556 45.4629 102.615C45.6623 102.683 45.8071 102.79 45.9644 102.907C46.1058 103.401 46.7101 103.669 47.2069 103.635C47.4678 103.617 47.7019 103.528 47.9149 103.398C48.2866 103.715 48.6959 103.998 49.0749 104.292C49.6055 104.702 50.1382 105.11 50.6739 105.514C51.7783 106.347 52.8912 107.169 54.0157 107.974C56.0116 109.404 58.0506 110.769 60.1246 112.083C60.9893 112.63 61.8598 113.177 62.7389 113.711L62.645 113.746L62.459 113.816C62.0191 113.981 61.529 114.246 61.4438 114.759C61.3762 115.167 61.6035 115.447 62.0054 115.497C62.483 115.556 62.8546 115.218 63.152 114.896C63.2833 114.754 63.4302 114.622 63.5559 114.476C63.6072 114.416 63.6466 114.347 63.6813 114.275C64.5488 114.786 65.4256 115.281 66.3162 115.743L66.5392 115.858C68.7479 116.987 70.8977 118.225 73.1251 119.323C73.7062 119.609 74.4146 119.919 75.1531 120.131C74.9571 120.89 74.9601 121.725 74.9552 122.496C74.9505 123.247 76.1443 123.244 76.1191 122.496L76.107 122.135C76.0852 121.527 76.0497 120.897 75.9057 120.306C78.0814 120.667 80.2549 119.882 80.6595 119.647C81.1062 119.387 81.5117 118.971 81.8491 118.585C82.5711 117.76 83.0722 116.77 83.5167 115.774C84.469 113.642 85.1437 111.363 85.6369 109.084C87.4553 100.68 86.6732 91.6863 83.7201 83.6309C82.9823 81.6182 82.1112 79.6499 81.113 77.7528L80.9891 77.5183C79.993 75.6423 78.886 73.7735 77.4797 72.177C76.015 70.5142 74.2082 69.221 72.2409 68.2172C71.2808 67.7273 70.293 67.3027 69.2833 66.9265C69.1211 66.866 68.9578 66.8118 68.7942 66.7601C67.742 66.0891 66.465 65.4471 65.1876 65.4724C65.1008 65.4739 65.0305 65.5069 64.978 65.5565C64.9164 65.5673 64.8549 65.5804 64.7932 65.5983C64.6571 65.6378 64.5133 65.7871 64.5328 65.9404L64.5394 65.9914C64.543 66.0163 64.5476 66.0404 64.5554 66.0639C64.5097 66.0707 64.4649 66.0815 64.421 66.0966C63.1988 65.7513 61.9963 65.2232 60.8036 64.7973L60.532 64.7013C59.5331 64.3511 58.5083 64.0079 57.6889 63.3148C56.8737 62.6254 56.2607 61.7323 55.8175 60.7669C55.2715 59.5775 55.0271 58.289 54.5788 57.0678ZM30.109 119.801C29.867 119.621 29.5809 119.83 29.4903 120.053C29.193 120.785 29.3399 121.921 29.759 122.568C30.1932 123.238 31.2326 122.974 31.2578 122.162C31.284 121.316 30.7921 120.31 30.109 119.801ZM27.6095 99.6009C27.5878 99.5058 27.4402 99.5067 27.4181 99.6009C27.2166 100.459 27.2213 101.384 27.1622 102.264L27.1553 102.361C27.0844 103.332 27.0247 104.305 26.9822 105.278C26.8987 107.19 26.7989 109.103 26.6871 111.015C26.6316 111.963 26.5722 112.91 26.5087 113.858C26.3101 113.747 26.1055 113.65 25.8934 113.564C25.5757 113.436 25.2664 113.421 24.925 113.424C24.5093 113.429 24.1962 113.794 24.2513 114.202C24.3113 114.646 24.7018 114.836 25.1073 114.772C25.5565 114.702 26.0076 114.593 26.4611 114.548C26.4105 115.28 26.3583 116.013 26.303 116.745C26.2297 117.714 26.134 118.682 26.0669 119.651C26.0604 119.744 26.0535 119.836 26.0464 119.929C25.776 119.789 25.4888 119.717 25.1634 119.628L25.0787 119.604C24.6062 119.468 24.1007 119.281 23.6633 119.599C23.3693 119.812 23.3106 120.164 23.5541 120.446C23.9234 120.873 24.4698 120.79 24.9798 120.769L25.2542 120.759C25.5128 120.748 25.7514 120.732 25.9905 120.667C25.9466 121.298 25.9235 121.932 26.0009 122.555C26.0427 122.891 26.4854 122.979 26.6025 122.636C26.9086 121.739 26.9718 120.772 27.0838 119.833C27.1884 118.956 27.252 118.072 27.3205 117.191L27.3412 116.927C27.4953 114.988 27.6186 113.048 27.7086 111.106C27.7987 109.164 27.8528 107.222 27.8743 105.278C27.8841 104.395 27.8695 103.509 27.835 102.626L27.824 102.361C27.7842 101.454 27.812 100.49 27.6095 99.6009ZM68.0541 119.944C68.0423 119.82 67.943 119.666 67.7953 119.686C67.6592 119.703 67.5189 119.695 67.3842 119.717C67.2065 119.747 67.0635 119.852 66.8982 119.918C66.6295 120.025 66.3366 120.081 66.061 120.169C65.5438 120.334 65.262 120.878 65.4762 121.387C65.7014 121.922 66.2673 122.043 66.7563 121.819C67.1418 121.642 67.4291 121.359 67.6883 121.032L67.7617 120.939C67.8734 120.798 68.0002 120.641 68.047 120.471C68.0926 120.305 68.0701 120.113 68.0541 119.944ZM42.9274 117.431C42.2832 117.34 41.733 117.56 41.1369 117.768L41.0885 117.785C40.4818 117.994 39.5967 118.139 39.2858 118.76C39.0982 119.135 39.2439 119.632 39.6853 119.743C40.3844 119.918 41.0113 119.407 41.5894 119.063L41.6197 119.045C42.1777 118.718 42.7536 118.443 43.1099 117.88C43.2049 117.729 43.1225 117.458 42.9274 117.431ZM65.4144 66.1818C65.6725 66.2396 65.9306 66.2907 66.1884 66.3399C67.1691 66.8657 68.121 67.4114 69.1335 67.8798C70.2078 68.377 71.2781 68.8904 72.2986 69.4917C74.3602 70.7067 76.0597 72.2863 77.4641 74.2226C79.8899 77.5673 81.6943 81.4244 82.9857 85.3381C83.3175 86.3436 83.6145 87.3604 83.8772 88.3858C83.4127 87.956 82.8629 87.6919 82.2463 87.4656C81.985 87.3698 81.6597 87.532 81.5273 87.7584C81.4677 87.86 81.4341 87.9606 81.4403 88.0798C81.454 88.343 81.6252 88.6419 81.9078 88.694C82.5665 88.8155 83.207 89.0519 83.8422 89.26C83.9385 89.2916 84.0212 89.2796 84.0873 89.2424C84.7178 91.9144 85.1123 94.6413 85.2521 97.3847C85.3702 99.7073 85.2973 102.048 85.0402 104.367C84.8426 104.278 84.6493 104.195 84.4326 104.145C84.1516 104.079 83.8752 104 83.6011 103.91C82.8101 103.65 82.4493 104.957 83.2578 105.156C83.5587 105.23 83.8614 105.291 84.168 105.336C84.4352 105.376 84.6716 105.358 84.9235 105.317C84.731 106.764 84.4681 108.201 84.1333 109.617L84.0594 109.927C83.6245 111.735 83.1175 113.561 82.3844 115.27C82.0248 116.108 81.5487 116.905 80.9609 117.604C80.672 117.947 80.3515 118.242 80.0019 118.521C79.7109 118.754 78.7216 119.258 77.55 119.258C76.3783 119.258 76.0611 119.147 75.47 118.943C74.301 118.541 73.1911 117.898 72.0948 117.326L71.9814 117.267C71.4966 117.016 71.0137 116.762 70.5321 116.505C70.5929 116.013 70.4864 115.601 70.2305 115.147C69.954 114.656 69.2686 114.901 69.2177 115.403L69.2161 115.422C69.2083 115.535 69.1894 115.65 69.1658 115.765C65.9452 114.001 62.7929 112.112 59.6906 110.144C57.6924 108.877 55.7153 107.571 53.7672 106.227C52.7933 105.556 51.8279 104.872 50.8721 104.175C50.3714 103.81 49.873 103.441 49.3769 103.07C49.1703 102.915 48.9676 102.753 48.7605 102.597C48.8109 102.534 48.8599 102.472 48.9074 102.409C49.6807 101.397 50.1824 100.189 50.4324 98.9437C50.5834 98.1922 50.6563 97.412 50.6784 96.6457L50.6882 96.3126C50.7035 95.7512 50.7075 95.1637 50.6041 94.6199C50.7448 94.6972 50.8886 94.7731 51.0319 94.8543C51.5461 95.1457 52.0608 95.4365 52.5763 95.7259C53.6086 96.3051 54.644 96.8778 55.6925 97.4273C57.5653 98.4089 59.4566 99.3426 61.3989 100.179L62.344 100.587C63.9843 101.293 65.6379 101.986 67.3433 102.51C68.3052 102.806 69.7475 103.172 70.7233 103.398C70.7233 103.398 69.5474 104.507 70.3984 104.888C71.2494 105.269 71.9544 103.807 71.9825 103.674C72.4319 103.768 73.7155 103.996 73.7155 103.996C74.9352 104.231 76.1178 104.697 77.2081 105.294C77.5871 105.502 77.6927 105.099 77.2911 104.818C76.1169 103.997 74.7473 103.532 73.3341 103.142L73.2646 103.123C72.7462 102.981 72.2286 102.833 71.7122 102.679C71.769 102.474 71.8018 102.261 71.7952 102.025C71.7807 101.502 71.7344 100.976 71.7066 100.453C71.6482 99.3539 71.5738 98.2587 71.4865 97.1621C71.453 96.7397 71.4155 96.316 71.3725 95.8927C71.6494 95.7442 71.8883 95.547 72.197 95.4501L72.2492 95.4348C72.5794 95.3458 72.4679 94.9201 72.1746 94.8837C71.9089 94.8508 71.6445 94.8659 71.3825 94.9222C71.3419 94.931 71.3035 94.9409 71.2669 94.952C71.2188 94.5599 71.1654 94.1689 71.1047 93.7801C70.9443 92.7527 70.8308 91.6702 70.4969 90.6831C70.4721 90.61 70.3636 90.5838 70.3234 90.6604C69.8376 91.5849 69.8207 92.719 69.766 93.7485L69.7592 93.8715C69.6947 94.9946 69.691 96.1287 69.7118 97.2534C69.7332 98.4125 69.7728 99.5686 69.8248 100.727C69.8457 101.193 69.8449 101.677 69.9243 102.123C67.0335 101.183 64.1938 100.057 61.4719 98.7248C59.5519 97.785 57.6484 96.8075 55.7666 95.7933C54.8237 95.2852 53.8765 94.7853 52.9346 94.2753C52.6046 94.0966 52.2749 93.9173 51.9453 93.7376L51.4509 93.468C50.9883 93.2154 50.6022 92.9642 50.0634 92.9465C49.9028 92.9411 49.7588 93.0165 49.6565 93.1304C49.367 92.9249 49.0323 92.7988 48.6811 92.8017C48.1524 92.0712 47.6156 91.3467 47.0575 90.6379L46.6452 90.1131C45.9315 89.2077 45.1755 88.2886 44.2655 87.5994C43.8593 87.292 43.4125 87.0613 42.9466 86.8707C43.0562 86.844 43.1635 86.7901 43.2592 86.7013C43.7042 86.2885 43.7655 85.5218 43.8559 84.9458C43.9497 84.3485 43.9134 83.8139 43.8208 83.2185C43.7848 82.9872 43.4017 82.939 43.3082 83.1515C43.1112 83.5996 42.9025 84.029 42.7232 84.4821L42.6703 84.6188C42.4778 85.1289 42.0679 85.6656 42.095 86.2189C42.1023 86.3706 42.1531 86.5027 42.2315 86.609C41.8405 86.4791 41.4438 86.3632 41.0532 86.2424C39.8238 85.8624 38.5897 85.4931 37.3367 85.1983C37.0031 85.1198 36.6679 85.047 36.3313 84.9801C36.155 84.1426 35.898 83.3206 35.595 82.5133C35.8819 82.3663 36.0676 82.1198 36.3146 81.9006C36.5459 81.6952 36.7047 81.4452 36.902 81.2095C37.0815 80.9951 36.9806 80.6076 36.658 80.6202L36.5665 80.624C36.2322 80.6395 35.9084 80.6741 35.6053 80.8302L35.4973 80.8859C35.3492 80.9628 35.187 81.051 35.0427 81.1551C34.8539 80.7206 34.6576 80.2902 34.4592 79.8642L34.2017 79.3134C33.5342 77.8796 32.8686 76.3912 32.0305 75.0561C31.658 74.4626 31.1621 74.092 30.4505 74.0346C29.7177 73.9756 28.9558 74.0518 28.2219 74.078C27.3712 74.1085 26.5207 74.1446 25.6708 74.1893C25.8887 73.961 26.0875 73.7069 26.3063 73.4878C26.6695 73.1246 27.0532 72.7802 27.4565 72.4619C28.2548 71.832 29.1325 71.313 30.0441 70.8661C30.956 70.419 31.8946 70.0293 32.7506 69.477C33.2922 69.1276 33.7764 68.6878 34.2181 68.212C34.4961 71.2127 35.9446 74.0006 38.1206 76.0952C40.3807 78.2705 43.504 79.4656 46.5594 79.974C49.6758 80.4925 52.9285 80.3022 55.9097 79.2186C57.4469 78.6598 58.9212 77.8615 60.236 76.8601C60.2504 76.9472 60.2678 77.0333 60.302 77.1143C60.3478 77.223 60.4038 77.3156 60.4681 77.4112L60.5827 77.5788C60.655 77.6842 60.7287 77.7887 60.8108 77.8865C61.0095 78.1232 61.291 78.2269 61.5943 78.2258C62.175 78.2239 62.6148 77.6543 62.4585 77.091C62.3603 76.7369 62.1501 76.5239 61.8221 76.3853C61.7184 76.3415 61.6128 76.3048 61.5065 76.2686L61.4267 76.2416C61.3193 76.2048 61.2127 76.1697 61.1022 76.1494C61.7247 75.5997 62.3024 75.0019 62.8196 74.3569C64.442 72.3338 66.0423 69.5006 65.4999 66.8139C65.4905 66.7678 65.449 66.7387 65.4042 66.7314C65.3728 66.5428 65.2724 66.3604 65.135 66.2378C65.2275 66.2135 65.3207 66.1947 65.4144 66.1818ZM48.5676 112.634C48.2463 112.455 47.9144 112.88 48.1755 113.142L48.5653 113.532C48.9271 113.896 49.2793 114.264 49.589 114.678L49.664 114.779C50.0821 115.348 50.5279 116.008 51.2129 116.22C52.0414 116.477 52.8377 115.468 52.3579 114.73C51.9387 114.086 51.1316 113.843 50.4358 113.576C49.7775 113.324 49.1829 112.976 48.5676 112.634ZM75.2962 109.659C75.1075 109.412 74.6152 109.542 74.7442 109.892C75.1631 111.028 75.3338 112.577 76.3917 113.332C76.733 113.575 77.2691 113.464 77.5501 113.183C77.8694 112.863 77.8822 112.413 77.6996 112.024C77.4769 111.548 76.9291 111.204 76.5452 110.842L76.5107 110.809C76.0976 110.407 75.6509 110.124 75.2962 109.659ZM31.0814 110.967C30.7444 110.822 29.8662 110.539 29.606 110.873C29.5938 110.886 29.5834 110.899 29.575 110.914C29.5113 111.025 29.5018 111.181 29.575 111.291C29.8783 111.747 30.1942 112.088 30.6253 112.412L30.6737 112.448C31.1431 112.793 31.5841 113.199 32.156 113.355C32.9488 113.57 33.5025 112.577 32.9457 111.998C32.4972 111.531 31.8125 111.288 31.2181 111.028L31.0814 110.967ZM62.9165 104.476C63.0492 104.236 62.7782 103.942 62.5328 104.092C61.8328 104.52 61.0175 104.841 60.2313 105.071C59.9131 105.165 59.626 105.487 59.6497 105.835L59.6534 105.888C59.6627 106.011 59.6797 106.133 59.7578 106.236C60.0316 106.594 60.4233 106.732 60.8417 106.52C61.7739 106.047 62.4121 105.388 62.9165 104.476ZM42.458 103.75C42.4751 103.649 42.4014 103.571 42.2989 103.59C41.7074 103.702 41.161 103.988 40.653 104.317C40.3806 104.493 40.1178 104.687 39.846 104.865C39.5103 105.084 39.3846 105.266 39.3349 105.669C39.3022 105.935 39.5506 106.178 39.7784 106.252C40.3993 106.452 41.1106 105.795 41.5312 105.368L41.5502 105.349C41.9905 104.9 42.3537 104.369 42.458 103.75ZM24.6912 103.052C24.8261 102.688 24.3614 102.386 24.0574 102.565C23.7713 102.733 23.4608 102.873 23.1909 103.066C22.9428 103.243 22.7167 103.453 22.4788 103.646L22.3612 103.739C21.9249 104.09 21.2048 104.957 21.8286 105.461C22.4223 105.94 23.2094 105.328 23.6079 104.881L23.6357 104.849C23.865 104.584 24.1476 104.296 24.314 103.987C24.4705 103.695 24.5767 103.361 24.6912 103.052ZM30.5462 74.854C31.2898 74.9983 31.5929 75.9165 31.906 76.515C32.645 77.9275 33.3246 79.3658 34.0072 80.8059C34.2173 81.2489 34.4219 81.6953 34.6283 82.1409C34.641 82.1758 34.6572 82.2101 34.6762 82.2441C35.0991 83.155 35.5347 84.0599 36.0437 84.9246C35.5778 84.8373 35.1095 84.7629 34.6395 84.7044C34.6632 84.2616 34.3601 83.6691 34.2102 83.2963L34.1978 83.2649C34.0108 82.7872 33.8149 82.0348 33.3337 81.7869C33.1734 81.7044 33.0019 81.8078 32.9896 81.9844C32.9531 82.5102 33.4672 83.1119 33.7184 83.5581C33.8704 83.8281 34.0185 84.0992 34.1628 84.3733C34.2169 84.4759 34.2621 84.5767 34.3176 84.6672C34.0752 84.6409 33.8325 84.6175 33.5891 84.6005L33.4305 84.5896C32.5283 84.5301 31.5701 84.5132 30.755 84.9582C29.9987 85.371 29.6122 86.2523 30.0276 87.0547C30.5453 88.0544 31.6851 88.1869 32.6874 88.2679C33.9393 88.3689 35.1941 88.5513 36.4372 88.7292C37.723 88.9132 38.9338 89.3874 40.2005 89.6311C40.3183 89.6537 40.3916 89.4996 40.2836 89.4338C39.2844 88.8254 38.0697 88.4906 36.9527 88.1495L36.8623 88.1219C36.2564 87.9357 35.6643 87.723 35.0375 87.6174C34.429 87.5149 33.8167 87.4318 33.203 87.3687L33.1434 87.3632C32.4677 87.3065 30.7438 87.3258 30.8167 86.325C30.8649 85.6626 31.9412 85.5482 32.4325 85.5403C34.6851 85.5042 36.9539 86.1024 39.0947 86.7432L39.5726 86.8866C40.4492 87.1504 41.327 87.4219 42.1871 87.7312C43.1619 88.0816 43.9297 88.6281 44.6397 89.376C45.4268 90.2054 46.1891 91.0534 47.0057 91.8547C47.5205 92.3599 48.0419 92.8561 48.5676 93.3483C48.6863 93.5021 48.7813 93.6694 48.8471 93.8864C48.9583 94.253 48.9327 94.5938 48.8907 94.9704C48.7849 95.9215 48.7615 96.8824 48.6289 97.8305C48.5059 98.7088 48.334 99.6193 47.9694 100.434C47.825 100.757 47.6372 101.074 47.4232 101.357L47.2505 101.582C47.1752 101.679 47.091 101.786 47.0026 101.886C46.8728 101.728 46.6851 101.625 46.4668 101.651C46.003 101.705 45.6385 101.692 45.1835 101.586C44.8314 101.503 44.482 101.407 44.1314 101.317C43.443 101.142 42.7482 100.982 42.0669 100.78L41.9497 100.745C41.4419 100.589 40.934 100.394 40.5114 100.066C40.0203 99.6847 39.8693 99.1349 39.5056 98.6595C38.7289 97.6444 37.0507 97.6657 35.9143 97.3876C34.9486 97.1514 34.0193 96.7785 33.351 96.0776L33.312 96.0359C33.3416 95.9108 33.2936 95.7696 33.1774 95.7048L33.1521 95.6907C33.1068 95.6654 33.058 95.6549 33.0102 95.6559C32.9482 95.5648 32.8883 95.4707 32.8339 95.3705C32.7892 95.2879 32.6774 95.3487 32.692 95.4302C32.7007 95.4789 32.7129 95.5265 32.7244 95.5741C32.077 95.4075 31.3661 95.4393 30.7088 95.4397L29.8559 95.4367C29.7082 95.4349 29.4882 95.4275 29.4687 95.4186L29.4486 95.4097C29.3954 95.3866 29.4709 95.4247 29.4338 95.3754C29.3928 95.321 29.3527 95.266 29.3131 95.2104C29.1717 95.0126 29.038 94.8087 28.9069 94.603C30.3353 94.967 31.815 95.1935 33.2734 95.3824C34.8381 95.5852 36.4234 95.7259 38.0021 95.7274C38.4372 95.7278 38.4333 95.0706 38.0021 95.0541C36.3304 94.9903 34.6676 94.9017 33.0071 94.6875C32.1485 94.5765 31.2935 94.4374 30.4432 94.2746C30.1149 94.2119 29.7874 94.1453 29.4608 94.0749L29.2159 94.0214C29.0623 93.9874 28.6282 93.9385 28.4165 93.7964C28.3749 93.7249 28.3333 93.6535 28.2921 93.5821C28.3124 93.3312 28.95 93.3648 29.0995 93.3644C29.5233 93.3636 29.9473 93.367 30.3712 93.3681C31.219 93.3706 32.0667 93.3632 32.9146 93.3564C34.6085 93.3426 36.3088 93.2835 38.0013 93.3558C38.4122 93.3733 38.628 92.7142 38.222 92.5408C36.4292 91.7751 34.4391 91.6087 32.5249 91.3733C31.5182 91.2496 30.511 91.1067 29.5269 90.8563L29.2836 90.7943C28.6654 90.6358 27.9828 90.4425 27.4622 90.0647C28.2446 89.748 29.2172 89.7843 30.0282 89.7395L30.0903 89.7359C31.226 89.6661 32.3637 89.6304 33.5015 89.6287C35.8296 89.6255 38.1584 89.708 40.4839 89.8184C40.5422 89.8211 40.5543 89.729 40.4976 89.7166C38.1074 89.1949 35.6782 88.9436 33.2321 88.9049C32.0929 88.8868 30.9532 88.9029 29.815 88.9533L29.3973 88.9726C28.4269 89.0145 27.35 89.0258 26.5381 89.612C26.4143 89.7013 26.349 89.8154 26.3388 89.9361C25.2499 87.7647 24.2442 85.5479 23.2344 83.3458C22.4494 81.6335 21.6937 79.9069 20.88 78.208L20.6166 77.6584C20.2639 76.925 19.9026 76.1915 19.5013 75.4848C21.0017 75.2841 22.5104 75.1448 24.0201 75.0382C25.3956 74.9409 29.8839 74.7255 30.5462 74.854ZM31.2106 98.3881C31.0395 98.293 30.7773 98.3705 30.7352 98.5816C30.7038 98.7387 30.6502 98.9132 30.6502 99.074C30.6502 99.2666 30.7191 99.4759 30.7558 99.6643C30.8402 100.098 30.9441 100.45 31.1644 100.836C31.3022 101.077 31.5804 101.241 31.86 101.235C32.0815 101.23 32.2777 101.17 32.4296 100.999C32.6117 100.793 32.7367 100.491 32.6368 100.215C32.3753 99.49 31.8944 98.768 31.2106 98.3881ZM67.5017 97.6652C67.1013 96.9637 66.1523 96.3367 65.3241 96.3988C64.0806 96.4919 63.8268 98.167 65.0308 98.5667C65.7505 98.8055 66.7405 98.5603 67.3701 98.1671C67.5398 98.0612 67.602 97.841 67.5017 97.6652ZM80.2822 95.2685C80.3731 95.1363 80.2228 94.9852 80.0873 95.015C79.7868 95.081 79.4629 95.1098 79.1685 95.1995C78.8671 95.2912 78.5753 95.4433 78.2767 95.548C77.6512 95.7671 76.9831 95.8772 76.3778 96.1418C76.1358 96.2476 75.9454 96.5981 75.9678 96.8566L75.9735 96.917C75.9869 97.0453 76.0091 97.1572 76.0808 97.2744C76.2735 97.5891 76.6552 97.7517 77.0154 97.6549C77.6837 97.4753 78.3367 97.0139 78.9066 96.6306L79.0119 96.5606C79.2608 96.3965 79.5285 96.225 79.7291 96.0138C79.9385 95.7933 80.1106 95.5183 80.2822 95.2685ZM57.3094 92.7172C57.3863 92.44 57.0416 92.2569 56.8407 92.4441C56.4392 92.8183 56.0194 93.1653 55.6262 93.549L55.5998 93.5751C55.3183 93.8582 54.9086 94.4036 55.2748 94.7699C55.744 95.2393 56.3974 94.5428 56.6492 94.1799C56.9685 93.7195 57.16 93.2555 57.3094 92.7172ZM26.5857 90.4257C27.1813 91.0568 28.0989 91.3469 28.9069 91.5874C29.8648 91.8721 30.8518 92.0423 31.8399 92.1823C32.7946 92.3174 33.742 92.4383 34.6815 92.5935C33.9708 92.6023 33.2602 92.6076 32.5511 92.6203C31.7333 92.6351 30.916 92.6528 30.0985 92.6765C29.5031 92.6938 28.8045 92.6122 28.2387 92.8335C28.1368 92.8733 28.0415 92.9285 27.9583 92.9957C27.4826 92.1497 27.0268 91.2919 26.5857 90.4257ZM63.3228 84.5242C62.7012 84.3267 62.1166 84.0645 61.4576 84.1326C61.2825 84.1505 61.157 84.3211 61.2526 84.4896C61.5649 85.0395 62.0728 85.3498 62.5727 85.7176L62.6168 85.7502C63.1639 86.1573 63.7514 86.5283 64.3465 86.8624C65.371 87.4375 66.2891 85.7915 65.2545 85.3085C64.6319 85.0178 63.9779 84.7324 63.3228 84.5242ZM52.1308 83.0951C51.1798 83.1577 50.2293 83.2002 49.277 83.2387C48.174 83.2834 48.5448 84.9813 49.4662 84.6377C50.3765 84.2981 51.2869 83.9629 52.2054 83.6461C52.485 83.5498 52.4625 83.0904 52.1486 83.0944L52.1308 83.0951ZM76.5238 80.0743C76.2773 80.0569 76.0287 80.1108 75.7819 80.1348L75.5192 80.1602C74.9777 80.2141 74.47 80.2806 73.9537 80.501C73.0009 80.9078 73.5126 82.4401 74.4691 82.4049C75.1761 82.3789 75.7806 82.0752 76.3775 81.7216C76.8994 81.4125 77.2193 81.0258 77.5718 80.5404C77.6885 80.3797 77.5258 80.1995 77.3669 80.1833C77.0869 80.1547 76.8039 80.0939 76.5238 80.0743ZM28.7627 76.9453C28.9203 77.9295 29.3117 78.8519 29.9014 79.655C30.1978 80.0585 30.7181 80.0738 31.0118 79.655C31.4272 79.0624 31.1711 78.3836 30.8581 77.8145L30.7654 77.6478C30.6253 77.398 30.41 77.0335 30.1641 76.7818L30.1599 76.756C30.0281 75.7256 28.6002 75.9313 28.7627 76.9453ZM67.2293 70.629C66.9922 70.4154 66.5555 70.4796 66.4786 70.8272C66.3709 71.3141 66.3054 71.8627 66.3759 72.357C66.4141 72.6248 66.4284 72.9256 66.5337 73.1753C66.6469 73.4437 66.8647 73.6501 67.0699 73.8519C67.4794 74.2549 68.3429 74.1216 68.4526 73.4868L68.4665 73.4089C68.5217 73.1085 68.5923 72.7874 68.5106 72.4897C68.4489 72.265 68.311 72.0359 68.197 71.8275L68.173 71.7832C67.9445 71.3576 67.5884 70.9524 67.2293 70.629ZM33.9022 71.6648L33.8165 71.6657C33.1547 71.6788 31.9448 71.84 31.9384 72.658C31.9368 72.8509 32.0796 73.0507 32.2709 73.095C32.6665 73.1868 32.9222 72.953 33.2041 72.7167C33.4347 72.5235 33.7034 72.3693 33.9826 72.2583C34.2841 72.1383 34.2644 71.6643 33.9022 71.6648Z" fill="black"/>
<path fill-rule="evenodd" clip-rule="evenodd" d="M52.3726 24.1858C38.4515 23.4995 32.1696 33.3257 31.7632 37.7146C31.4812 40.7611 33.2767 44.2727 33.2767 46.995C33.2767 48.3846 31.5795 51.3679 32.3696 53.3933C34.1282 57.9012 37.8516 62.9042 42.5964 62.9042C47.3412 62.9042 53.5162 64.2197 58.759 56.6941C59.2509 55.988 65.4729 51.9748 66.0774 48.1613C67.5831 38.6623 62.3059 24.6755 52.3726 24.1858Z" fill="#D08B5B"/>
<path fill-rule="evenodd" clip-rule="evenodd" d="M53.0287 18.0707C52.5309 17.4998 51.6905 17.2714 50.9438 17.3156C49.8591 17.3801 48.9157 18.0513 47.8365 18.1011C46.7051 18.1535 45.613 17.7604 44.4787 17.9427C43.7835 18.055 43.0946 18.3782 42.6492 18.9233C41.1062 18.4804 39.4309 19.0669 38.4481 20.3477C37.2358 20.159 35.9169 20.9638 35.5458 22.1349C34.0055 22.1846 32.5516 23.4249 32.3799 24.9791C31.7644 25.1421 31.23 25.5676 30.9021 26.1301C30.5209 26.782 30.4575 27.5297 30.5264 28.2644C29.8018 28.6355 29.4335 29.4329 29.337 30.2763C28.6748 30.7717 28.3873 31.662 28.5223 32.5027C28.0154 32.789 27.7535 33.4557 27.7563 34.0505C27.7591 34.6057 27.906 35.0975 27.6993 35.6333C27.5152 36.1105 27.4491 36.5082 27.5504 37.0081L27.5607 37.0568C27.5786 37.1383 27.5937 37.2164 27.6072 37.2935C27.4701 37.4141 27.3541 37.5653 27.267 37.7412C26.9494 38.3839 26.9967 39.1169 27.2389 39.7687C27.1328 40.1838 27.1463 40.6222 27.3031 41.0212C27.0095 41.4452 26.8551 41.9653 26.9004 42.5048C26.9513 43.1089 27.2265 43.6499 27.6437 44.0499C27.5326 44.8751 27.8673 45.7666 28.4725 46.3476C28.3866 46.8416 28.4607 47.3594 28.7303 47.8277C28.9224 48.1614 29.1811 48.41 29.4795 48.5833C29.4696 48.8589 29.5068 49.1408 29.5983 49.4232C29.7253 49.815 29.9404 50.1761 30.2235 50.4668C30.0546 51.5495 30.7012 52.7508 31.8393 53.0546C31.9349 53.0801 32.0261 53.0918 32.1134 53.0936C32.2265 54.1349 32.4734 55.1617 32.8556 56.1369C33.8274 58.6201 35.5945 60.7913 37.8989 62.1457C39.0387 62.8151 40.319 63.2736 41.626 63.4651C42.5665 63.6033 43.4712 63.5692 44.4153 63.4753C45.6002 63.3565 46.7905 63.1788 47.9423 62.8731L48.1275 62.8237C48.605 62.6955 49.1084 62.5475 49.522 62.2893C49.9849 62.0002 50.2255 61.5546 50.332 61.0297C50.3914 60.7376 50.2069 60.4234 49.8879 60.4174L49.8673 60.4174C49.7975 60.4189 49.7283 60.4162 49.6582 60.4118L49.6055 60.4082H49.6028C49.5992 60.4073 49.5972 60.4073 49.5936 60.4073C49.5624 60.4027 49.5321 60.3935 49.5018 60.3889C49.1509 60.3297 48.844 60.3884 48.5144 60.4983L48.4731 60.5123C47.9184 60.7038 47.3682 60.8815 46.7951 61.0132C46.2027 61.1485 45.6029 61.2562 45.0013 61.3409L44.9416 61.3483L44.9233 61.3511L44.9141 61.352C44.9123 61.352 44.9104 61.352 44.9086 61.3529L44.7313 61.375C44.5916 61.3916 44.4521 61.4063 44.3125 61.4211C44.0553 61.4468 43.7982 61.4671 43.541 61.4818C39.1021 61.7323 35.3741 58.2288 34.2489 54.0283C33.8411 52.5081 33.8145 50.9916 33.9348 49.4742C33.9734 49.3637 33.9964 49.2412 33.9954 49.1068C33.9954 49.0368 33.9917 48.9678 33.9872 48.8978C34.1368 47.4301 34.3967 45.9615 34.5594 44.4882C34.7494 42.7673 34.8551 41.0364 34.8165 39.3044C34.7973 38.449 34.7063 37.6019 34.5869 36.7549L34.5438 36.4505C35.0834 36.3449 35.585 36.0884 35.9845 35.7171C36.8513 36.2189 37.9732 36.2634 38.8288 35.7335C39.7877 36.3363 41.1274 36.391 42.093 35.8016C42.6765 36.2192 43.4119 36.3994 44.1337 36.2409C44.4584 36.1696 44.7812 36.0154 45.0576 35.8019C45.255 35.8368 45.455 35.8503 45.6538 35.8399L45.6949 35.8629C46.1532 36.1051 46.6609 36.2645 47.1834 36.2467C47.5703 36.2336 47.9688 36.1571 48.3377 36.0124C48.7319 36.2508 49.1632 36.4136 49.6246 36.472C50.2985 36.5572 51.0257 36.4077 51.5862 36.0245C52.6103 36.6094 53.8701 36.6994 54.9755 36.3064C55.2019 36.6909 55.5152 37.0223 55.8821 37.2778C55.8164 37.5137 55.7955 37.7653 55.818 38.0072C55.8552 38.4053 55.9547 38.7623 56.1176 39.0829C55.9459 39.4409 55.8943 39.8805 55.9904 40.3217C56.1273 40.951 56.4925 41.4983 56.9653 41.9247C57.007 42.9288 57.5563 43.8704 58.4504 44.3935C58.4956 44.4199 58.5406 44.4415 58.5856 44.4609C58.625 44.515 58.6723 44.5626 58.7262 44.6028C59.2947 45.1294 60.1944 45.0875 60.9071 44.79C60.9208 44.7906 60.9345 44.7918 60.9485 44.7921C61.203 44.7985 61.3765 44.6991 61.4794 44.5527C61.5831 44.5583 61.6861 44.5693 61.7898 44.5886C62.1683 44.6595 62.5834 44.7958 62.926 44.9727C63.8151 45.4311 64.2265 46.2414 64.3496 47.2155C64.4836 48.2781 64.1788 49.3609 63.3585 50.08C62.96 50.4299 62.4502 50.6491 61.9322 50.7411C61.36 50.8433 60.7483 50.592 60.3259 51.0846C60.2414 51.1822 60.1835 51.3185 60.2294 51.4501C60.3727 51.8608 60.6087 52.0182 60.978 52.0753C60.4443 52.7097 59.8969 53.323 59.2907 53.8929C58.635 54.5107 57.9571 55.1092 57.3656 55.7906C56.7402 56.5116 56.1753 57.2758 55.7831 58.1505C55.559 58.6532 55.379 59.1716 55.1851 59.6863L55.1505 59.776C54.9343 60.3229 54.6468 60.85 54.9795 61.4211C55.1118 61.6457 55.4112 61.863 55.6867 61.8271C56.4627 61.7277 56.7226 61.2019 56.9615 60.5169C57.1416 59.9994 57.2793 59.4672 57.473 58.9543C57.5093 58.8594 57.5488 58.7654 57.5902 58.6719C58.0377 58.797 58.5297 58.6977 58.9291 58.4419C59.3558 58.6315 59.8285 58.7261 60.2851 58.7181C60.8964 58.7073 61.4549 58.537 61.9351 58.23C61.9733 58.2198 62.0117 58.2101 62.0498 58.1991C62.7803 58.4796 63.6357 58.4295 64.2971 57.9749C64.7254 57.6806 65.0182 57.2877 65.1846 56.8502C65.738 56.8396 66.2854 56.6429 66.6819 56.2494C67.0459 55.8881 67.2588 55.4219 67.3219 54.9375C67.7983 54.8429 68.2448 54.6121 68.595 54.2233C68.8875 53.8985 69.0652 53.4849 69.1252 53.0555C69.7053 52.8895 70.2285 52.5098 70.5142 51.9804C70.7801 51.4875 70.8185 50.9528 70.6885 50.4665L70.7222 50.4179C71.3197 50.1043 71.7757 49.5911 71.8226 48.858C71.8358 48.6493 71.8134 48.4404 71.7569 48.2428C71.7773 48.0219 71.7643 47.8011 71.7065 47.5875C72.5101 46.804 72.8013 45.5453 72.365 44.5048C73.1503 43.6577 73.3579 42.318 72.782 41.3126C73.1769 40.8337 73.3799 40.2233 73.3459 39.5714C73.3037 38.7575 72.9317 38.0466 72.4863 37.3882C72.8169 37.0218 72.9932 36.5108 72.9803 36.0172C72.962 35.3018 72.5827 34.6858 72.1078 34.1757C72.5221 32.9161 72.0592 31.5497 71.0424 30.7523C71.2482 30.4126 71.3244 29.9918 71.2573 29.5655C71.1398 28.8206 70.5823 28.3132 69.9807 27.9118C70.1065 27.5012 70.0735 27.0582 69.8732 26.6338C69.606 26.0675 69.1017 25.7084 68.5755 25.4045C68.4395 24.1486 67.0398 23.0759 65.866 23.7241C66.1572 22.7896 65.3185 21.7804 64.3541 21.6736C63.8821 20.2391 62.2537 19.3349 60.7897 19.6912C60.0411 18.6655 58.6478 18.2706 57.4648 18.7106C56.1642 17.7116 54.5506 17.5633 53.0287 18.0707ZM62.2935 46.2377C61.3796 46.188 60.6944 46.9357 60.2131 47.6198C59.7613 48.2616 60.9204 48.9392 61.2584 48.2321C61.3796 47.9798 61.5174 47.7128 61.702 47.4918C61.733 47.5353 61.7604 47.5804 61.7876 47.6266L61.815 47.6732C61.8352 47.7073 61.8563 47.7423 61.8737 47.7782C61.8719 47.7846 61.8995 47.8693 61.9004 47.873C61.9757 48.1023 62.1401 48.2496 62.3641 48.3288C62.6535 48.4301 62.9272 48.2118 63.02 47.9559C63.1678 47.5471 62.8243 47.1907 62.4671 47.0287C62.8179 46.9716 63.1633 47.0913 63.4167 47.362C63.4516 47.3997 63.5104 47.3693 63.5122 47.3224C63.5417 46.6806 62.8721 46.269 62.2935 46.2377Z" fill="black"/>
<path fill-rule="evenodd" clip-rule="evenodd" d="M37.5938 50.8181C37.4576 50.6402 37.1263 51.4149 37.0587 51.5096L37.0554 51.5139C36.7605 51.8709 36.5198 52.4175 36.4857 52.8759C36.4847 52.8896 36.4847 52.9028 36.4847 52.9161C36.012 52.8512 35.5392 52.7851 35.0665 52.7125C34.8837 52.575 34.628 52.6177 34.3805 52.7428C33.8285 53.0215 34.0972 53.907 34.6918 53.8928C36.2998 53.8545 37.9421 54.0611 39.5366 54.247C40.3568 54.3426 41.1753 54.4441 41.9912 54.5738C42.7534 54.6949 43.5327 54.866 44.3041 54.8993C44.3461 54.9011 44.3637 54.8384 44.3258 54.8189C43.6457 54.4694 42.8689 54.2578 42.1346 54.0531C41.34 53.8317 40.5395 53.6238 39.7334 53.4483C39.0101 53.2908 38.283 53.1729 37.5542 53.0667C37.5598 53.0525 37.5652 53.0379 37.5698 53.0226C37.6623 52.7124 37.6599 52.3565 37.6796 52.0296L37.691 51.856C37.709 51.557 37.727 50.9924 37.5938 50.8181ZM39.9624 46.9927C39.2674 47.4154 38.2083 48.4009 38.956 49.4486C39.8361 50.3725 41.1033 49.3132 41.7277 48.8342C42.3067 48.4629 42.9573 49.4178 42.4201 49.8513C37.9079 53.1932 36.0768 47.1032 39.6108 46.4958C40 46.4289 40.1445 46.862 39.9624 46.9927ZM51.1372 43.2728C49.9807 43.0963 48.7961 43.076 47.6275 43.1344C47.02 43.1647 46.4131 43.2098 45.8077 43.2698C45.4916 43.3012 45.1759 43.3364 44.8607 43.3759C44.6347 43.4043 44.2856 43.5337 44.0708 43.4748C43.4144 43.295 42.7912 43.9164 42.9722 44.5739C43.1518 45.2264 43.9213 45.3985 44.4163 45.0066C44.651 44.9238 44.8871 44.8454 45.1246 44.7721C45.1427 44.8469 45.1693 44.9209 45.2069 44.9925C45.249 45.0726 45.2896 45.1533 45.3281 45.2351C45.3198 45.222 45.3834 45.3746 45.3852 45.379L45.436 45.5119C45.5246 45.741 45.6239 45.9583 45.8646 46.077C46.1955 46.2401 46.7146 46.1502 46.8483 45.7609C47.0572 45.3514 46.919 44.7794 46.7992 44.3553L46.79 44.3227C48.2332 43.9794 49.7005 43.7219 51.1372 43.3727C51.1841 43.3613 51.1889 43.2807 51.1372 43.2728ZM33.9722 41.7327C33.8971 41.5823 33.7269 41.5817 33.6255 41.7229C33.4003 42.0365 33.9047 42.4856 34.1152 42.6943L34.1363 42.7153C34.6094 43.1956 35.1865 43.5827 35.7587 43.9327C35.8787 44.0061 36.0005 44.076 36.1229 44.145C36.1002 44.1906 36.0796 44.2371 36.0628 44.2845C35.9761 44.5292 35.9745 44.8216 36.0525 45.0689C36.2151 45.5846 36.6476 45.9967 37.2085 45.9961C37.5043 45.9958 37.8545 45.716 37.8145 45.3899C37.8002 45.2738 37.7885 45.1502 37.7707 45.0267C38.1652 45.158 38.6496 45.0042 38.9005 44.6789C39.2495 44.2267 39.1535 43.4856 38.6193 43.2047C38.2264 42.9983 37.7928 42.9462 37.3673 42.8371C36.9451 42.729 36.5257 42.6048 36.1124 42.466C35.7047 42.3292 35.299 42.1826 34.8939 42.0377C34.6936 41.966 34.4953 41.8999 34.2914 41.8391C34.2002 41.8121 34.0691 41.7409 33.9722 41.7327Z" fill="black"/>
<path fill-rule="evenodd" clip-rule="evenodd" d="M36.1595 57.9825C36.4808 57.8773 36.7963 57.755 37.1133 57.637C38.734 56.8226 40.6918 56.6749 42.3915 57.3608C43.2257 57.6974 44.0037 58.3023 44.8408 58.6986C45.0396 58.7729 45.24 58.8403 45.4427 58.8968C45.567 58.8535 45.6912 58.8075 45.8146 58.7614C46.7025 58.4267 47.5376 58.0137 48.3485 57.5594C48.435 57.4376 48.5248 57.3192 48.6212 57.2054C48.0345 57.1221 47.46 56.9836 46.9402 56.8407C45.3442 56.4034 43.8403 55.6907 42.2498 55.234C40.7689 54.8077 39.1619 54.5747 37.6745 55.1042C36.9686 55.3555 36.3473 55.7957 35.6607 56.0922C35.3054 56.245 34.8793 56.3951 34.4642 56.4172C34.732 57.059 35.0707 57.6584 35.5337 58.1574C35.7454 58.1123 35.9552 58.0488 36.1595 57.9825ZM32.7062 52.9559C32.8483 53.0741 33.4348 53.4553 33.625 53.6825C33.6741 53.6638 33.723 53.6447 33.7716 53.625C33.8553 53.5222 33.9785 53.4771 34.1042 53.4798C34.9812 53.0718 35.762 52.4951 36.4587 51.772C36.9539 51.2591 37.4611 50.7223 38.1228 50.4249C38.9024 50.0732 39.6691 50.2353 40.4883 50.2887C41.3599 50.3467 42.2204 50.099 43.0911 50.2178C43.7281 50.3052 44.3245 50.575 44.8399 50.9553C45.8919 51.7315 46.6172 52.8217 47.5063 53.7618C48.5151 54.828 49.7558 55.5094 51.1355 55.8574C51.152 55.8464 51.1695 55.8353 51.187 55.8252C52.204 54.9044 53.1226 53.8649 53.9353 52.7572C54.7287 51.6753 56.8208 46.8054 57.3261 46.3782C57.5359 46.2005 57.766 46.1241 57.986 46.1305C58.3845 46.1397 58.7527 46.4169 58.9175 46.8533C59.1973 47.5954 59.0574 48.5549 59.0353 49.3311C59.0077 50.2813 58.9451 51.2306 58.8457 52.1762C58.7472 53.1108 58.6165 54.0426 58.4536 54.968C58.3717 55.4357 58.2805 55.9025 58.1802 56.3675C58.1489 56.5139 58.1093 56.6447 58.0615 56.7662C58.0127 56.9955 57.9602 57.2238 57.9041 57.4504C57.5378 58.9337 56.9598 60.4189 55.8562 61.5137C54.7075 62.6545 53.1465 63.4123 51.6969 64.09C50.3163 64.7354 48.8694 65.3091 47.3848 65.7584C46.0953 66.3431 44.7147 66.8053 43.3286 67.0484C41.8026 67.3163 40.1983 67.3329 38.7248 66.8025C38.0004 66.542 37.3156 66.1783 36.6944 65.7252C35.8135 65.2676 35.0211 64.6387 34.3722 63.8064C33.21 62.3146 32.6553 60.5043 32.4125 58.6376C32.3504 58.1599 32.1168 56.3287 32.0985 56.0436C32.0391 55.1229 31.9798 54.2022 31.9205 53.2815C31.8925 52.847 32.4256 52.723 32.7062 52.9559Z" fill="black"/>
</svg>
