<svg width="108" height="142" viewBox="0 0 108 142" fill="none" xmlns="http://www.w3.org/2000/svg">
<path fill-rule="evenodd" clip-rule="evenodd" d="M2.34827 78.1239C3.66255 78.253 4.97684 78.3819 6.29112 78.511C12.5856 78.9921 18.8775 79.9969 25.1238 80.5999C25.2793 80.3467 25.5837 80.3884 25.7685 80.5643C26.3918 80.5097 27.0904 80.0331 27.655 80.5289C27.6733 80.5263 27.6916 80.5233 27.7101 80.5215C28.7154 78.5913 29.4103 76.5326 30.0847 74.4711C30.5151 73.2037 31.0943 71.9767 32.1645 71.1258C33.991 69.8574 38.1758 67.2855 40.3205 67.3936C40.3561 67.0094 40.5351 66.6135 40.829 66.3577C40.1812 65.2529 42.7713 64.532 42.954 64.6601C42.8369 60.9689 44.5725 57.7634 48.3996 57.0284C51.8281 56.3137 56.7046 56.1936 58.5486 59.778C58.7513 59.7552 60.8232 59.7444 61.0237 59.7669C61.3354 59.372 64.7583 63.1141 63.3554 64.4169C75.8979 69.9674 83.0297 69.3052 86.5012 84.9092C86.9706 86.3751 87.0048 87.9791 87.5003 89.4123C89.2635 93.531 90.6936 97.9166 91.0495 102.398C91.9091 102.619 92.008 104.135 91.0123 104.354C90.6319 104.438 90.3139 104.552 90.0366 104.77C90.2534 108.442 89.3655 116.832 88.8061 116.806C87.6653 120.438 82.5772 121.463 78.975 120.186C79.596 121.355 78.975 122.09 78.975 122.714C66.0132 123.205 51.8409 122.922 38.8828 123.595C37.2252 123.572 35.4818 124.002 33.8469 123.754C32.8498 123.515 32.8481 121.947 33.8595 121.753L29.4404 120.793C29.5391 120.756 27.6188 119.478 26.1674 117.09C24.8165 114.419 25.7359 111.195 25.1238 108.289C20.3428 107.898 15.4828 107.731 10.7541 106.921C10.1094 108.85 7.3184 106.542 6.43125 105.614C6.43235 105.613 6.43346 105.611 6.43456 105.61C6.00522 105.492 5.66092 105.09 5.64941 104.613C5.34832 104.183 5.28511 103.576 5.57385 103.16C4.25045 95.5208 2.23292 87.7209 1.50369 80.0097C1.2459 79.9526 1.00313 79.8395 0.797303 79.6653L0.813982 79.6486C0.465257 79.2597 0.397444 78.5884 0.978805 78.2579C1.44776 77.9911 1.83933 78.0738 2.34827 78.1239Z" fill="#D08B5B"/>
<path fill-rule="evenodd" clip-rule="evenodd" d="M52.3335 106.716L51.321 107.361L43.0374 110.031L37.9752 110.675L33.8334 110.031V117.121L33.005 123.75C33.3732 124.426 36.8707 124.426 43.4976 123.75C47.7221 123.32 63.1615 123.111 66.6767 123.019L66.8758 123.014C71.0066 122.895 75.087 122.895 79.1172 123.014V120.528L67.6122 114.819L57.3037 109.018L52.3335 106.716ZM58.2031 59.1987L57.4423 59.767L59.1033 62.4971L51.0118 69.0447V74.2745L48.4501 76.6984L46.9858 74.2745L44.9226 71.5296L43.4563 67.0801L43.9556 64.1487L42.9516 64.0541C42.9467 64.2545 42.9475 64.4566 42.954 64.6603C42.7713 64.5322 40.1811 65.253 40.8289 66.3579C40.535 66.6136 40.356 67.0096 40.3204 67.3937C38.1758 67.2856 33.9909 69.8576 32.1645 71.1259C31.0942 71.9769 30.5151 73.2038 30.0846 74.4712L29.9833 74.7804L29.8786 75.0978L29.7732 75.415C29.1908 77.1585 28.5618 78.8862 27.7101 80.5217C27.6916 80.5234 27.6732 80.5265 27.6549 80.529C27.0903 80.0333 26.3918 80.5099 25.7685 80.5645C25.588 80.3926 25.2933 80.3488 25.1348 80.5828L25.1237 80.6L32.8893 82.1304L38.0123 100.108L42.4737 96.4849L44.8684 96.8412L51.1924 99.1229L58.5476 101.034L75.3385 105.665H77.4768L89.9192 102.659L91.0405 102.289C90.6702 97.8455 89.2491 93.4976 87.5003 89.4124C87.0047 87.9793 86.9705 86.3752 86.5012 84.9094C83.0296 69.3053 75.8979 69.9676 63.3553 64.4171C64.7582 63.1143 61.3353 59.3721 61.0236 59.767L61.004 59.7653L60.9615 59.7631L60.9068 59.7611C60.4175 59.7469 58.7304 59.7577 58.5485 59.7782C58.443 59.5731 58.3276 59.3801 58.2031 59.1987Z" fill="#FFCF77"/>
<path fill-rule="evenodd" clip-rule="evenodd" d="M1.1073 78.6698L1.3386 79.9593C1.39358 79.9774 1.44951 79.9926 1.50617 80.0052C1.57886 80.7739 1.66436 81.5435 1.7607 82.3137L3.19476 90.3096C3.44211 91.7242 3.67692 93.1418 3.91002 94.5599L4.2189 96.0831L4.41019 97.0298C4.82313 99.08 5.22429 101.124 5.57633 103.156C5.52319 103.232 5.48198 103.315 5.45197 103.402L5.47906 103.517L5.4979 103.593L5.51717 103.669C5.79493 104.737 6.27823 105.773 7.4172 106.087C8.27633 106.324 9.21898 106.345 10.1061 106.439L10.2044 106.45L25.7278 108.196C27.6035 108.407 29.4784 108.624 31.353 108.844L32.9781 109.035C35.2433 109.297 37.5214 109.504 39.7532 109.979C39.8352 109.996 39.9031 110.029 39.9585 110.072C39.5091 108.37 39.0789 106.671 38.689 104.951C38.2502 103.017 37.8337 101.078 37.3643 99.1503C36.4187 95.2665 35.3586 91.4082 34.1982 87.5831C33.9547 86.7803 33.7055 85.979 33.4509 85.1797L33.2723 84.6209L33.1347 84.1756C32.922 83.4967 32.6587 82.7989 32.0347 82.4244C31.3045 81.9861 30.3088 81.9135 29.4806 81.7619L28.9198 81.6565C28.0807 81.4999 27.2405 81.3492 26.3994 81.2045C22.3721 80.5116 18.3219 79.9557 14.2569 79.5381C10.0269 79.1036 5.78217 78.8212 1.5323 78.6832L1.1073 78.6698ZM39.6367 105.33L39.5971 105.333L40.177 109.97C40.2697 109.905 40.3874 109.866 40.531 109.866C42.433 109.872 44.2563 109.263 46.0197 108.595L46.2883 108.493L47.037 108.205C47.7981 107.913 48.5632 107.628 49.3426 107.391L49.6577 107.296L49.8178 107.249C50.4079 107.076 51.0287 106.92 51.6425 106.881L51.7262 106.876L51.5474 106.782C51.5213 106.769 51.4984 106.753 51.478 106.737C51.1401 106.762 50.8016 106.755 50.4452 106.691C49.775 106.57 49.1233 106.337 48.5248 106.012L48.2575 105.867L48.1481 105.809L48.0758 105.771L48.004 105.735C47.49 105.479 46.9985 105.318 46.3495 105.455C45.6128 105.61 44.9672 106.007 44.3032 106.343L44.1853 106.401L44.1061 106.44L44.0253 106.478L43.9435 106.515C43.0455 106.919 41.6162 107.356 41.2719 106.134C41.1335 105.643 41.2419 105.184 41.4819 104.781C41.0346 104.742 40.2355 105.27 39.6367 105.33ZM17.2822 90.0519L17.2713 90.1075C17.1443 90.7914 17.4628 91.4456 17.9447 91.9226C18.34 92.3137 19.0396 92.5311 19.2378 93.0938C19.3506 93.4139 19.2306 93.7175 18.9988 93.9292L19.0522 93.9556L19.1044 93.9822L19.1553 94.0092L19.205 94.0364L19.2534 94.0637C20.0407 94.5162 20.6819 95.252 19.9718 96.1409C19.1663 97.1491 17.4831 97.1818 16.2973 97.1029L16.2174 97.0973C15.0675 97.0111 13.7054 96.6247 13.0818 95.5625C12.7959 95.0753 12.8274 94.486 13.226 94.069C13.4665 93.8174 13.8955 93.559 14.2889 93.5285C14.2717 93.3067 14.2981 93.0926 14.376 92.9118C14.5446 92.5212 14.9933 92.2581 15.4261 92.2486C15.3911 91.419 16.0553 90.6002 16.5443 89.937L16.5942 89.869L16.6427 89.8021C16.8671 89.4897 17.3472 89.6647 17.2822 90.0519ZM16.6261 90.9348L16.1805 92.6045L16.1882 92.6183C16.3451 92.9164 15.9337 93.2549 15.6897 93.0043L15.6651 92.9779C15.3755 92.6786 14.9309 93.0809 14.9254 93.3993C14.9175 93.8477 15.2092 94.1943 15.5568 94.4233L15.5812 94.4391L15.6452 94.4789C15.9305 94.6675 15.7145 95.0619 15.4009 95.0139C15.0129 94.9545 14.6949 94.6466 14.4989 94.2622C14.2894 94.3222 14.051 94.3149 13.8304 94.4384C13.2744 94.7494 13.5942 95.2936 13.9562 95.6225L13.9709 95.6357L14.0004 95.6614C14.6645 96.228 15.5688 96.4248 16.4212 96.467L16.4704 96.4692C17.3314 96.5061 18.4532 96.5184 19.1911 96.0118C19.6504 95.6965 19.7834 95.2494 19.3947 94.826C19.1749 94.5867 18.953 94.3452 18.7246 94.1119C18.3827 94.2752 18.0773 94.209 17.7276 94.0545C17.6828 94.0346 17.7076 93.966 17.7516 93.966C17.9445 93.9658 18.6523 93.6075 18.6868 93.3786C18.7186 93.1667 18.327 92.9881 18.1366 92.8858L18.109 92.8706L18.085 92.8567C17.8858 92.736 17.6984 92.5955 17.527 92.4377C17.092 92.0371 16.7761 91.5348 16.6381 90.9849L16.6261 90.9348Z" fill="white"/>
<path fill-rule="evenodd" clip-rule="evenodd" d="M58.3096 58.9456C57.9191 57.9638 56.599 58.3455 56.7461 59.3769C56.8342 59.9947 57.1725 60.6473 57.4763 61.1888C57.7237 61.6296 58.0059 62.0597 58.3885 62.3901C57.7074 63.0258 57.0004 63.6383 56.2755 64.2198C55.4845 64.8543 54.6528 65.4392 53.793 65.9767C53.0391 66.4482 52.2512 66.8658 51.5405 67.4037C50.8798 67.9038 50.2778 68.5052 49.9715 69.2904C49.6452 70.1265 49.787 70.9899 50.0273 71.8254L50.0549 71.9199C50.3004 72.7477 50.7253 73.7455 50.1361 74.5254C49.8361 74.9224 49.4 75.2036 49.0235 75.521C48.6888 75.8031 48.3747 76.1099 48.0866 76.4395C47.4585 77.1578 46.9475 77.9662 46.6251 78.8669L46.5963 78.9487C46.3199 79.746 46.118 80.7228 46.4914 81.5056C46.5985 81.73 46.944 81.657 47.004 81.4385C47.1397 80.9435 47.1326 80.4252 47.2464 79.9232C47.3648 79.4011 47.5617 78.9055 47.819 78.4367C48.3167 77.5297 48.9908 76.7549 49.7872 76.0999L50.0256 75.9059C50.6469 75.3959 51.2177 74.8547 51.3438 74.0106C51.4788 73.1074 51.117 72.247 50.8845 71.3922C50.7224 70.7965 50.6695 70.2254 50.8446 69.687C51.0586 70.0365 51.3506 70.3681 51.5815 70.664C52.0414 71.2534 52.5057 71.8391 52.9687 72.426C53.4435 73.0278 53.9065 73.6391 54.3475 74.2663C54.5447 74.5468 54.7398 74.829 54.9343 75.1115C55.0806 75.3239 55.2845 75.536 55.4439 75.7526C55.4052 75.8684 55.4081 76.0019 55.4784 76.0967C56.3238 77.2394 57.5264 74.8552 57.8401 74.2528C58.4789 73.0261 58.9543 71.7229 59.5951 70.4964C60.2592 69.225 61.0154 67.9875 61.8582 66.8268C62.368 66.1247 62.9394 65.4653 63.4058 64.7409C64.5045 65.7375 65.9502 66.4056 67.2782 67.0115C68.7373 67.6771 70.2531 68.2208 71.749 68.7982L72.1909 68.9699C74.7685 69.9762 77.409 71.0818 79.5515 72.8693C82.0691 74.9698 83.5584 77.8975 84.6673 80.9292C85.9437 84.4193 86.9996 88.0037 87.984 91.5857C88.4878 93.4185 88.9657 95.2596 89.4151 97.1065C89.811 98.7337 90.1392 100.377 90.5976 101.987C89.668 101.955 88.6078 102.315 87.8141 102.419C84.197 102.892 80.6286 103.647 77.2137 104.954C76.7918 105.116 76.6698 105.537 76.7616 105.879C76.5184 105.81 76.2753 105.741 76.032 105.672C76.2986 105.264 76.1714 104.533 76.1504 104.081L76.1491 104.05C76.1276 103.446 76.0621 102.842 76.0197 102.24C75.9389 101.092 75.8337 99.9521 75.6939 98.8105L75.6582 98.5251C75.4997 97.2832 75.3825 96.034 75.2096 94.7942L75.1891 94.6523C75.2721 94.3351 75.3686 94.0218 75.47 93.7098C75.74 92.8788 76.1211 92.0966 76.4552 91.2918C76.4945 91.1971 76.3596 91.1426 76.2966 91.1995C75.7309 91.7085 75.2816 92.3544 74.9206 93.0298C74.9143 92.998 74.9088 92.966 74.9023 92.9342L74.8611 92.7313C74.7595 92.2367 74.6359 91.7163 74.3326 91.3151C74.3003 91.2725 74.2364 91.2635 74.2059 91.3151C73.9156 91.8065 73.8831 92.4289 73.8385 92.988C73.7879 93.6206 73.7816 94.2612 73.7905 94.8955C73.8079 96.1351 73.8952 97.3782 73.9648 98.6158C74.0331 99.832 74.1671 101.033 74.3399 102.237L74.3727 102.463C74.4572 103.036 74.5263 103.616 74.6377 104.186L74.6692 104.34C74.7288 104.623 74.7654 105.021 74.8839 105.351C71.8339 104.5 68.7792 103.669 65.7187 102.852C63.5067 102.261 61.2924 101.679 59.079 101.094C58.9622 100.883 58.8168 100.687 58.6353 100.511C58.0373 99.9317 57.2448 99.6732 56.518 100.119C56.4589 100.156 56.4539 100.248 56.518 100.283C56.6572 100.359 56.7968 100.437 56.9338 100.519L55.6047 100.159C54.6114 99.8894 53.6061 99.5529 52.5893 99.3651C50.7166 98.4406 48.7024 97.7714 46.7296 97.11L46.4971 97.0313C45.487 96.6868 44.4422 96.3012 43.3986 96.1102C42.6345 95.9704 41.7377 96.1391 41.4305 96.9221C41.0415 97.1785 40.6755 97.4799 40.3224 97.7763C40.0671 97.9904 39.8223 98.2181 39.5735 98.4399L39.5276 98.4802C39.3241 98.6568 39.1629 98.775 39.113 99.0561C39.0872 99.2013 39.1794 99.3976 39.3585 99.3784C39.9062 99.3197 40.3516 98.6846 40.723 98.3053C41.01 98.0122 41.2993 97.7091 41.5612 97.3869C41.7139 97.47 41.9232 97.4551 42.0204 97.271C42.5245 96.3162 43.9051 96.9778 44.6691 97.2042L45.7634 97.5282C46.3106 97.6905 46.8575 97.8535 47.4035 98.0194C48.9041 98.4753 50.3974 98.9855 51.9116 99.4042C51.7761 99.5532 51.7948 99.8182 52.0522 99.919C53.2375 100.384 54.5378 100.625 55.7692 100.944C56.5467 101.146 57.3237 101.349 58.1004 101.553C58.2336 101.769 58.3294 102.013 58.3697 102.297C58.5179 103.342 58.2321 104.548 57.9536 105.559L57.9117 105.71C57.6827 106.522 57.346 107.519 56.6451 108.032C56.474 108.157 56.2561 108.244 56.0365 108.264C54.6645 107.557 53.2925 106.851 51.9197 106.146C51.6654 106.015 51.4304 106.192 51.3734 106.402C50.8893 106.323 50.4064 106.198 49.9665 106.048C49.2275 105.797 48.6504 105.318 47.9575 104.987C46.6168 104.346 45.2477 105.133 44.0474 105.732L43.7707 105.868C43.2325 106.129 42.1126 106.631 41.8543 105.916C41.6045 105.225 42.3943 104.486 42.9044 104.175C43.5124 103.804 44.2204 103.606 44.9076 103.44C45.2999 103.346 45.6971 103.269 46.0966 103.212C46.5498 103.149 47.0179 103.158 47.4543 103.011C47.6712 102.938 47.7045 102.594 47.4543 102.537C46.7826 102.384 45.9809 102.551 45.2799 102.721L44.9135 102.811C44.2073 102.985 43.4943 103.202 42.851 103.548C42.3833 103.8 41.8896 104.182 41.567 104.65C41.287 104.389 40.9384 104.398 40.5753 104.495L40.3782 104.549C40.0528 104.64 39.789 104.702 39.4723 104.639C39.43 104.409 39.3871 104.178 39.3411 103.948C38.8899 101.681 38.395 99.4236 37.8489 97.178C36.907 93.3045 35.817 89.4736 34.5883 85.6819L34.465 85.3029C34.1816 84.4356 33.9535 83.4907 33.4966 82.694C33.0645 81.9406 32.3721 81.5067 31.5496 81.2769C30.6161 81.0161 29.6352 80.8796 28.683 80.7035C28.4706 80.6643 28.2576 80.627 28.045 80.5884C28.2246 80.2639 28.3588 79.8955 28.4796 79.6128L28.5007 79.5638C28.7603 78.9719 28.9934 78.3693 29.2185 77.7634L29.3869 77.308C29.7934 76.2113 30.213 75.1326 30.7845 74.1069C31.3861 73.0274 32.1842 72.1448 33.1791 71.4144C35.2074 69.925 37.6523 69.1653 39.6197 67.5735C39.7003 67.5083 39.5969 67.3968 39.5151 67.4381C38.1867 68.1058 36.7526 68.5598 35.3709 69.1035L35.0983 69.2111C34.0062 69.6441 32.8972 70.1156 31.9519 70.8168C30.898 71.5987 30.068 72.5698 29.4442 73.7245C28.8293 74.8627 28.436 76.1368 28.0023 77.3526L27.8862 77.6765C27.7113 78.1623 27.5306 78.6466 27.3235 79.1193C27.1591 79.4946 26.8523 79.9231 26.7129 80.3518C26.3314 80.2856 25.9499 80.2192 25.5681 80.1554C17.2967 78.7739 8.93291 77.9621 0.550537 77.7247C0.222595 77.7154 0.0529709 78.0284 0.101288 78.3146C0.905724 83.0732 1.6206 87.8481 2.40496 92.6102C2.74735 94.6887 3.09656 96.7655 3.45395 98.8414C3.63499 99.8931 3.84429 100.941 4.01576 101.994C4.15419 102.845 4.25469 103.702 4.49234 104.533C4.70551 105.278 5.03262 105.996 5.56985 106.564C6.14897 107.177 6.95727 107.474 7.7709 107.614C9.83638 107.969 11.955 108.115 14.0372 108.352L25.1232 109.613C24.9612 111.086 24.949 112.537 25.0234 114.027L25.0657 114.84C25.1004 115.495 25.1418 116.15 25.2357 116.798C25.3535 117.61 25.725 118.298 26.2722 118.905C26.7746 119.462 27.385 119.937 27.9788 120.393C28.5951 120.866 29.2319 121.323 29.9565 121.615L30.0506 121.653C30.6863 121.901 31.8788 122.285 32.7478 122.145C32.6342 122.714 32.4144 123.326 32.6092 123.89C32.6996 124.151 33.0415 124.282 33.251 124.059C33.666 123.618 33.6984 123.035 33.7967 122.46C33.899 121.861 33.9872 121.26 34.0655 120.658C34.217 119.493 34.3349 118.317 34.3709 117.142C34.4079 115.936 34.3936 114.728 34.3286 113.523C34.2952 112.904 34.2538 112.286 34.1753 111.671C34.1418 111.409 34.1076 111.146 34.0684 110.885C34.0542 110.789 34.0383 110.694 34.0213 110.599L35.0163 110.712C36.5421 110.882 38.0685 111.036 39.605 111.06C39.787 111.063 39.927 110.98 40.0185 110.859C40.1159 111.018 40.2857 111.132 40.5287 111.131C42.6745 111.123 44.6727 110.421 46.6243 109.594C47.608 109.176 48.5765 108.725 49.5617 108.311C50.4812 107.925 51.4643 107.65 52.3617 107.215L54.7198 108.453C54.7371 108.513 54.7593 108.571 54.7828 108.619C54.9363 108.933 55.2391 109.103 55.5482 109.231C55.845 109.354 56.1523 109.392 56.4517 109.361C58.2401 110.299 60.0288 111.235 61.8188 112.17L63.6092 113.103C67.1763 114.961 70.7293 116.85 74.3189 118.664L74.5832 118.797C75.823 119.419 77.1544 120.05 78.5303 120.52C78.5548 120.869 78.5393 121.207 78.5101 121.576L78.5031 121.656C78.4621 122.092 78.3741 122.638 78.7236 122.949C78.9054 123.11 79.2301 123.11 79.3537 122.867C79.578 122.426 79.3766 121.731 79.3055 121.251C79.2803 121.081 79.2496 120.906 79.2041 120.736C80.7815 121.206 82.4067 121.433 84.0118 121.17C85.5747 120.913 86.7851 119.928 87.7609 118.723C88.7907 117.452 89.5226 115.97 89.9152 114.382C90.3621 112.575 90.3912 110.708 90.3807 108.857C90.3696 106.886 90.2967 104.905 90.057 102.947C90.3196 102.885 90.6108 102.832 90.8762 102.85C91.0076 103.061 91.2626 103.149 91.493 103.122C91.9939 103.675 90.7232 104.239 90.3171 104.381C90.1761 104.43 90.1912 104.659 90.3539 104.652L90.4563 104.647C91.0838 104.614 91.732 104.507 92.101 103.923C92.3966 103.456 92.3078 102.902 91.9554 102.521C91.7226 100.319 91.1661 98.175 90.6482 96.0272C90.14 93.9191 89.5747 91.8246 88.9757 89.7406L88.7071 88.8079C87.7638 85.5402 86.7779 82.2462 85.4767 79.1084C84.827 77.5416 84.0786 76.0037 83.064 74.6375C82.1183 73.364 81.0018 72.2743 79.7183 71.3436C77.3258 69.6083 74.5183 68.5599 71.7599 67.561L71.6364 67.5163C70.2069 66.999 68.7809 66.4755 67.3678 65.9151C66.1179 65.4194 64.9206 64.791 63.6767 64.2879C63.7171 64.2145 63.7561 64.1403 63.7936 64.0652L63.8166 64.0846C63.8206 64.0877 63.8246 64.0907 63.8288 64.0936C63.9539 64.1803 64.1381 64.1377 64.2411 64.0404C64.5322 63.7656 64.4337 63.4606 64.2394 63.1757L64.2141 63.1394C63.9764 62.8064 63.7645 62.4543 63.5451 62.1092L63.4078 61.8934C63.0396 61.3168 62.6527 60.7364 62.1619 60.2599C61.9345 60.0391 61.6856 59.8739 61.422 59.7508C61.4445 59.7031 61.2468 59.6056 61.1908 59.6547C60.3553 59.3488 59.3941 59.4129 58.4833 59.4973M25.6597 109.674L26.8212 109.806C28.0991 109.952 29.3775 110.092 30.656 110.232L33.4331 110.534C33.4402 110.692 33.4594 110.847 33.4629 110.967C33.4811 111.583 33.4946 112.2 33.5074 112.817C33.5331 114.053 33.5049 115.291 33.4235 116.525C33.3447 117.721 33.2408 118.917 33.0794 120.104L33.0464 120.342L33.0272 120.466C32.8955 120.479 32.7661 120.542 32.6585 120.67C32.4236 120.951 31.5731 120.678 31.2409 120.56C30.6946 120.365 30.1802 120.037 29.7056 119.708C29.242 119.386 28.8247 119.011 28.4236 118.616L28.0954 118.291C27.7689 117.966 27.4421 117.621 27.2421 117.212C26.9709 116.659 26.9358 115.979 26.8563 115.376C26.7584 114.635 26.6418 113.893 26.5185 113.155M59.3788 101.89L59.4992 101.922C63.8758 103.085 68.2459 104.283 72.6359 105.395C74.8085 105.945 76.9913 106.456 79.1665 106.995L79.5186 107.084C81.2346 107.517 82.9712 108.04 84.2853 109.285C84.3338 109.331 84.4042 109.26 84.3585 109.211C82.9423 107.703 80.9281 107.065 78.9942 106.511C78.6367 106.409 78.2787 106.309 77.9212 106.207C80.5513 105.269 83.223 104.453 85.9563 103.871C86.6601 103.721 87.3721 103.611 88.0754 103.461C88.5659 103.356 89.0449 103.204 89.5302 103.078L89.9119 102.982L89.917 104.189C89.9233 105.898 89.9203 107.606 89.8331 109.316L89.8166 109.632C89.7149 111.534 89.5561 113.476 88.8814 115.269C88.3331 116.727 87.4592 118.1 86.3163 119.161C85.738 119.698 85.1163 120.116 84.3478 120.323C83.6342 120.514 82.8866 120.537 82.153 120.486C78.6344 120.24 75.5023 118.328 72.4458 116.745C67.4464 114.155 62.4465 111.567 57.4421 108.988C57.5774 108.895 57.7048 108.789 57.8207 108.669C58.4918 107.975 58.8457 107.026 59.0782 106.107C59.3257 105.129 59.4737 104.08 59.491 103.07M53.0114 109.987C52.9672 109.964 52.916 109.993 52.914 110.043C52.8985 110.426 53.1097 110.803 53.2676 111.147L53.2843 111.184C53.476 111.611 53.6859 112.032 53.903 112.446C54.337 113.274 54.788 114.093 55.2587 114.9C56.2052 116.525 57.2571 118.08 58.5004 119.495C58.7812 119.814 59.243 119.405 59.0628 119.061C58.194 117.402 57.181 115.837 56.1384 114.284C55.6165 113.507 55.0949 112.729 54.5678 111.956C54.3479 111.633 54.1251 111.311 53.8964 110.995L53.7584 110.805M1.10466 78.6744C5.49654 78.8071 9.88327 79.0936 14.2543 79.5427C18.3193 79.9603 22.3694 80.5161 26.3968 81.2091C27.2379 81.3538 28.0781 81.5045 28.9171 81.6611L29.4205 81.7557C30.2597 81.9149 31.2849 81.9805 32.0321 82.429C32.8199 82.9018 33.0328 83.89 33.2949 84.7049C33.603 85.6632 33.9034 86.6243 34.1956 87.5877C35.356 91.4128 36.4161 95.2711 37.3617 99.1548C37.8311 101.083 38.2476 103.021 38.6864 104.956C39.0763 106.675 39.5065 108.375 39.9559 110.077C39.9005 110.033 39.8326 110.001 39.7506 109.983C37.5188 109.508 35.2407 109.302 32.9755 109.039L32.7564 109.014C30.4131 108.738 28.0699 108.464 25.7252 108.201L10.2018 106.454C9.2863 106.351 8.30552 106.337 7.41457 106.092C5.89979 105.674 5.54474 103.979 5.29059 102.63L5.28292 102.589C4.51668 98.5129 3.90673 94.4009 3.19213 90.3141M39.5948 105.338C40.1975 105.298 41.0224 104.746 41.4796 104.785C41.2396 105.188 41.1313 105.648 41.2696 106.139C41.6546 107.504 43.3957 106.798 44.2344 106.38C44.922 106.038 45.586 105.619 46.3473 105.459C47.2097 105.278 47.7939 105.621 48.5225 106.016C49.121 106.341 49.7727 106.574 50.443 106.695C50.7993 106.759 51.1379 106.766 51.4757 106.741C51.4961 106.758 51.519 106.773 51.5451 106.787L51.7239 106.881C50.9157 106.918 50.0925 107.167 49.3403 107.396C48.5609 107.632 47.7958 107.917 47.0347 108.209L46.286 108.497C44.4392 109.204 42.5275 109.876 40.5288 109.87C40.3851 109.87 40.2674 109.91 40.1747 109.975M42.9666 101.059C42.3712 100.986 41.8216 101.064 41.3459 101.452C40.7721 101.919 40.3866 102.695 39.5618 102.745C39.3213 102.76 39.2654 103.099 39.5044 103.169C40.1184 103.351 40.6155 103.019 41.0338 102.587L41.3151 102.293C41.7285 101.865 42.1098 101.534 42.8112 101.56C43.5625 101.587 44.315 101.761 45.0613 101.849C45.9068 101.949 46.7521 102.034 47.6003 102.108C47.6397 102.111 47.6464 102.049 47.6095 102.04L46.6595 101.804M43.5414 98.6235L43.4432 98.6136C42.5786 98.5296 41.7879 98.5264 41.0157 98.9917L40.8676 99.0813C40.1714 99.5046 39.4137 100.003 38.9783 100.689C38.9071 100.801 39.0248 100.933 39.144 100.904C39.9807 100.703 40.5924 100.089 41.2961 99.6296C42.0858 99.1138 42.9015 99.1988 43.802 99.279C44.6738 99.3566 45.5451 99.4632 46.4084 99.6086C47.2195 99.745 48.0332 99.9605 48.8526 100.029L48.8524 100.028C48.946 100.027 48.9994 99.8868 48.904 99.8391C48.0725 99.4237 47.1094 99.2271 46.205 99.0373M17.2764 90.0748C17.36 89.6749 16.8683 89.4894 16.6404 89.8066L16.592 89.8735C16.0996 90.5483 15.3876 91.395 15.4238 92.2532C14.9911 92.2627 14.5424 92.5257 14.3738 92.9164C14.2958 93.0972 14.2694 93.3113 14.2866 93.533C13.8932 93.5636 13.4642 93.822 13.2237 94.0735C12.8251 94.4905 12.7936 95.0798 13.0796 95.5671C13.7031 96.6293 15.0652 97.0157 16.2151 97.1019L16.2561 97.1049C17.4438 97.187 19.1551 97.1648 19.9695 96.1454C20.7551 95.1622 19.8869 94.3661 18.9966 93.9338C19.2283 93.7221 19.3483 93.4185 19.2355 93.0984C19.0373 92.5357 18.3377 92.3183 17.9424 91.9271C17.4605 91.4502 17.1421 90.796 17.2691 90.1121M16.6238 90.9394C16.7548 91.5088 17.0765 92.0296 17.5247 92.4423C17.6961 92.6001 17.8835 92.7406 18.0827 92.8613L18.1067 92.8752C18.2834 92.9745 18.7179 93.1605 18.6845 93.3832C18.6501 93.6121 17.9422 93.9704 17.7493 93.9705C17.7054 93.9705 17.6805 94.0391 17.7253 94.059C18.075 94.2135 18.3804 94.2797 18.7223 94.1165C18.9508 94.3498 19.1727 94.5912 19.3925 94.8305C19.7811 95.254 19.6481 95.7011 19.1889 96.0164C18.4509 96.523 17.3291 96.5107 16.4681 96.4738C15.6014 96.4368 14.675 96.2435 13.9981 95.666L13.9686 95.6403C13.6007 95.3129 13.2646 94.7582 13.8281 94.443C14.0487 94.3195 14.2871 94.3268 14.4966 94.2668C14.6926 94.6512 15.0106 94.9591 15.3986 95.0185C15.7122 95.0665 15.9282 94.6721 15.6429 94.4835L15.5789 94.4437C15.2206 94.215 14.915 93.8627 14.9231 93.4039C14.9286 93.0854 15.3732 92.6832 15.6628 92.9824L15.6761 92.9967C15.9184 93.27 16.3453 92.9257 16.1859 92.6228L16.1782 92.6091M73.1474 75.1042C73.1485 75.0358 73.0523 75.0102 73.0187 75.0694C72.4561 76.0595 72.1621 77.2731 71.8624 78.364C71.5485 79.5066 71.2951 80.6609 71.0675 81.8236C70.6065 84.1781 70.3608 86.5191 70.3442 88.9188C70.3419 89.2614 70.8998 89.3525 70.9544 89.0014C71.3168 86.6672 71.6639 84.3306 72.0291 81.997C72.2128 80.8233 72.4266 79.6541 72.6312 78.4839M67.5782 76.8287C67.6196 76.6921 67.421 76.6464 67.3702 76.7713C66.2412 79.5436 65.8589 82.6855 66.5837 85.6103C66.6946 86.0577 67.3497 85.8638 67.266 85.4221M53.0158 74.3654C53.0215 74.2632 52.8889 74.2471 52.8389 74.3174C52.3039 75.0714 52.082 76.0812 51.1435 76.4709C50.6749 76.6654 50.1476 76.6316 49.7336 76.9602C49.4569 77.18 49.2446 77.5269 49.4524 77.8598C49.5194 77.9673 49.7069 78.0212 49.7979 77.9043C49.9306 77.7341 50.0008 77.5302 50.1811 77.4026C50.4354 77.2226 50.7784 77.2115 51.07 77.1268C51.4471 77.0174 51.7796 76.826 52.0518 76.5416M44.0789 61.7893C44.0237 61.7612 43.9708 61.7791 43.9356 61.8268C43.8852 61.8948 43.8914 61.9609 43.953 62.0075C43.8707 62.1759 43.7734 62.5978 43.7595 62.6592C43.7032 62.9082 43.6432 63.1557 43.5806 63.403C43.4541 63.9018 43.3433 64.4044 43.2167 64.9034C43.0825 65.4323 42.9226 65.9555 42.7447 66.4712C42.7333 66.5046 42.7206 66.5387 42.7074 66.5733L42.6871 66.6256L42.6821 66.6176C42.646 66.5605 42.5707 66.6004 42.5796 66.6608C42.5879 66.7159 42.599 66.7707 42.6084 66.8257L42.5898 66.8751C42.4734 67.1884 42.3937 67.5184 42.6072 67.7949C42.6871 67.8983 42.775 67.9596 42.8845 67.9778C43.0602 68.557 43.2805 69.1253 43.5164 69.6712L43.5855 69.8306C43.9325 70.6271 44.3026 71.4131 44.8551 72.0911C45.4584 72.8314 46.2881 73.3369 46.8136 74.1481C47.058 74.5254 47.2281 74.9222 47.3662 75.3483L47.4181 75.5101C47.5161 75.8115 47.6292 76.1036 47.9118 76.2804C48.002 76.3368 48.1371 76.3188 48.2098 76.2419C48.7894 75.6286 48.1827 74.4834 47.8332 73.8896C47.3474 73.0638 46.6443 72.5356 45.9403 71.9126C45.1814 71.2411 44.6974 70.3428 44.2292 69.4578C43.9424 68.9157 43.6655 68.3618 43.374 67.8173C43.6786 67.548 43.776 67.0132 43.8792 66.6414L43.8886 66.6081C44.0592 66.0127 44.1946 65.4019 44.2802 64.7884C44.3626 64.1985 44.397 63.6171 44.3752 63.0239L44.3689 62.8728M42.9467 64.5967C43.0139 64.5044 42.9026 64.3999 42.8102 64.4192C42.249 64.5353 41.7002 64.8752 41.1965 65.15L41.1427 65.1792C40.7405 65.3961 40.3359 65.6618 40.1248 66.0833C39.8951 66.5413 39.9141 67.0689 39.9454 67.5666L39.9483 67.6132C39.9867 68.2101 39.9929 68.8304 40.1192 69.4165C40.1838 69.7165 40.4554 69.801 40.6876 69.7301C40.9639 70.6029 41.7401 71.246 42.3071 71.9347C43.0299 72.8128 42.8939 73.9982 42.8183 75.0557C42.7878 75.4839 43.3201 75.6056 43.5943 75.3772L44.2262 74.8521C44.3314 74.7645 44.4365 74.6767 44.5413 74.5885C44.6311 74.513 44.7201 74.4368 44.8083 74.3597L44.9401 74.2433C44.9985 74.191 45.2563 73.9029 45.3317 73.891C45.5143 73.8619 45.9481 74.3433 46.0965 74.4943L46.1153 74.5131C46.3948 74.7872 46.6472 75.0822 46.8824 75.3949C46.9256 75.4524 47.0102 75.4047 46.9793 75.3383C46.7686 74.8868 46.5236 74.455 46.2327 74.051L46.1739 73.9705C45.9803 73.7096 45.7205 73.2488 45.3788 73.1718C44.9616 73.0777 44.5451 73.4962 44.2415 73.7285L44.2223 73.7431C44.0779 73.8515 43.9352 73.9618 43.7927 74.0728C43.8076 73.2855 43.7082 72.4899 43.3018 71.8114C43.0153 71.3329 42.586 70.9785 42.2187 70.5673C41.8098 70.1094 41.5962 69.5466 41.2261 69.0698C41.1784 69.0084 41.1127 68.9754 41.0415 68.9649C41.0273 68.5815 40.9708 68.1943 40.9272 67.8151L40.9146 67.7016C40.8705 67.2896 40.7663 66.7863 40.968 66.4004C41.1585 66.0359 41.5955 65.7786 41.9192 65.5313L42.1835 65.3263M61.1628 60.2399C61.3317 60.3377 61.4897 60.4594 61.633 60.6114C62.0841 61.0901 62.4066 61.6858 62.7204 62.2589C62.8894 62.5675 63.0523 62.8796 63.2227 63.1875C63.2968 63.3215 63.373 63.454 63.45 63.5863C63.4857 63.6472 63.5915 63.7684 63.644 63.8431C63.5857 63.9248 63.5254 64.0052 63.4639 64.0848C63.4405 64.1152 61.8223 65.8786 61.2583 66.5687C60.3946 67.6258 59.6226 68.7424 58.9625 69.9376C58.3162 71.108 57.8242 72.3471 57.2255 73.5402C56.9258 74.1375 56.5911 74.7305 56.1645 75.2474C56.148 75.2676 56.1306 75.2867 56.1138 75.3066C55.951 74.8665 55.5338 74.3954 55.3289 74.1249L55.3097 74.0993C54.845 73.4727 54.3543 72.8649 53.8528 72.2674C53.3948 71.7218 52.9252 71.188 52.4442 70.663L52.2633 70.4666C51.9282 70.1044 51.5025 69.5626 51.0119 69.3038C51.0645 69.2101 51.1253 69.1174 51.1953 69.0259C51.6549 68.425 52.3047 67.9889 52.9458 67.5955L53.3616 67.3424C54.9288 66.387 56.4717 65.3872 57.8323 64.1458C58.5521 63.4889 59.262 62.8009 59.8671 62.0347L60.0811 61.7638M58.5478 59.767C59.2817 59.8286 60.0742 59.8139 60.7525 60.0531C60.1495 60.6234 59.5764 61.2391 58.9876 61.8189C58.9352 61.4267 58.8281 61.0394 58.7374 60.657" fill="black"/>
<path fill-rule="evenodd" clip-rule="evenodd" d="M51.0885 23.5032C45.8734 23.5032 40.4793 27.5556 38.5676 30.1416C36.9604 32.3158 36.0951 42.1473 36.0951 48.7915C36.0951 50.1811 35.3301 52.8006 35.5534 54.1298C36.3714 59.0005 39.9352 63.0855 46.9888 63.0855C54.0425 63.0855 59.0998 60.2825 64.3426 52.757C66.8865 52.757 68.1193 50.8013 68.1372 47.715C68.1551 44.6287 65.6818 43.5058 65.6818 43.5058C65.6818 43.5058 66.5636 31.3261 64.3426 28.155C62.1216 24.984 56.3035 23.5032 51.0885 23.5032Z" fill="#D08B5B"/>
<path fill-rule="evenodd" clip-rule="evenodd" d="M53.2826 21.7812C49.99 21.447 46.7634 21.7278 43.5185 22.3089C43.2705 22.354 43.13 22.517 43.0777 22.7131C41.5493 22.783 40.0192 22.8955 38.4928 22.9792C37.9389 23.0096 37.6248 23.5583 37.8774 24.0538C37.9278 24.1522 37.9803 24.248 38.0335 24.3437L37.9666 24.3216C37.5074 24.1739 37.0114 24.1011 36.564 24.3355C35.9946 24.6339 35.7713 25.2921 35.8971 25.898C35.9294 26.0527 35.9834 26.2009 36.045 26.3456C35.9201 26.3373 35.7942 26.34 35.6693 26.3566C35.0044 26.445 34.5102 26.956 34.4753 27.6365C34.4239 28.6639 35.0843 29.7063 35.8622 30.4419C35.7493 30.675 35.7061 30.9494 35.753 31.2274C35.8467 31.7771 36.2506 32.1063 36.7189 32.321C36.5236 32.9426 36.4313 33.5925 36.4858 34.2566C36.5039 34.4784 36.6974 34.6615 36.9015 34.7064C36.1405 36.8071 35.7553 39.0624 35.4783 41.26C35.2808 42.8235 35.1835 44.3962 35.1716 45.9715C35.1658 46.6827 35.1775 47.3948 35.2073 48.1061L35.2193 48.3728C35.256 49.1418 35.2579 49.9492 35.3956 50.7098C34.9254 51.5117 34.7362 52.5072 34.6563 53.4057C34.5571 54.518 34.7141 55.6653 35.0642 56.7233C36.3849 60.7212 40.3709 63.2441 44.3746 63.8997C48.0805 64.5065 52.3688 63.6898 54.5345 60.3151C54.5685 60.2617 54.4959 60.2176 54.4537 60.2526C52.9042 61.5158 51.1069 62.0793 49.1542 62.3537C45.7779 62.8271 41.9829 62.0241 39.2735 59.8954C37.9729 58.8733 37.0352 57.3854 36.6227 55.7841C36.4124 54.9656 36.3398 54.112 36.4226 53.2696C36.5071 52.4151 36.8845 51.6858 37.1223 50.8783C37.2022 50.6057 37.1177 50.3525 36.9515 50.1721C36.9048 49.5164 36.7944 48.8553 36.7523 48.2017C36.7054 47.4585 36.6769 46.7155 36.6668 45.9715C36.6475 44.4283 36.7118 42.8823 36.8413 41.3457C37.0783 38.5317 37.7074 35.7861 38.0766 32.9961C38.2133 33.119 38.4093 33.1695 38.6147 33.0621L38.636 33.0504L38.748 32.9861C38.7544 32.9861 38.7618 32.987 38.7683 32.9878C39.5351 33.0625 40.3305 32.9557 41.0653 32.7263C41.8341 32.487 42.5477 32.1187 43.1852 31.628C43.3063 32.2439 43.3569 32.8663 43.3578 33.4943C43.3587 33.8865 43.7729 34.0901 44.1017 33.9225C45.5593 33.1803 46.9517 32.325 48.2734 31.3637C48.4278 32.1565 48.582 32.9492 48.7373 33.7429C48.7969 34.0486 49.1855 34.172 49.4344 34.0265C50.4244 33.4491 51.2795 32.6933 51.9757 31.7945C52.1147 32.061 52.2541 32.3274 52.3944 32.5933L52.6057 32.9915C52.8142 33.3828 53.0934 33.8157 53.5499 33.9408C54.033 34.0734 54.4363 33.7595 54.5988 33.3212C54.6484 33.185 54.6943 33.0449 54.7366 32.904C55.1481 33.8461 55.6128 34.7668 56.1381 35.6452C56.9262 36.9628 57.8723 38.1367 58.8154 39.3411C59.102 39.7067 59.5925 39.3577 59.632 39.0023C59.6549 38.7933 59.6742 38.5834 59.6908 38.3743C60.2404 39.4862 60.8139 40.5877 61.4387 41.6573L61.3493 42.0087C61.0915 43.0472 60.8774 44.093 60.6446 45.1369C60.5695 45.4737 60.7481 45.9553 61.1406 46.0127C61.6096 46.0812 62.0533 46.3214 62.5336 46.1561C63.0574 45.9758 63.1609 45.522 63.4082 45.0918C63.4575 45.0061 63.5149 44.9274 63.5766 44.8526L63.5923 44.873C63.6309 44.9238 63.7228 44.8685 63.6998 44.8105L63.6729 44.7435C63.8853 44.5174 64.1396 44.3289 64.3733 44.126C64.9288 44.0322 65.5536 44.1349 65.9364 44.3612C66.808 44.8767 67.2083 45.9393 67.2166 46.9163C67.2267 48.0599 66.8732 49.3453 66.2762 50.3231C66.0134 50.7531 65.6534 51.1416 65.1777 51.3323C64.7055 51.5219 64.1939 51.463 63.7136 51.6416C63.3958 51.7604 63.2002 52.114 63.3921 52.4343C63.405 52.4565 63.4197 52.4767 63.4335 52.498L63.2907 52.688C63.1924 52.8197 63.09 52.9607 62.9944 53.1074C62.7501 53.3892 62.493 53.6609 62.2441 53.938C61.784 54.449 61.3375 54.9739 60.8848 55.4922C60.4576 55.9812 60.0058 56.4406 59.5401 56.8927C59.1002 57.3209 58.5509 57.6808 58.1468 58.1376C57.7538 58.5833 57.6472 59.3612 58.2938 59.6191C59.0093 59.9051 59.6426 59.2348 60.1242 58.7879L60.1445 58.7692C61.0273 57.9548 61.8245 57.024 62.4576 55.9993C63.0847 56.4273 63.9918 56.4682 64.6162 56.0403C64.9449 55.8152 65.197 55.4368 65.3195 55.0253C65.4351 55.0512 65.5505 55.0664 65.6631 55.0647C65.7211 55.0984 65.7792 55.1311 65.838 55.1617C66.3037 55.4047 66.8758 55.2962 67.0889 54.7795C67.283 54.3105 67.083 53.7779 66.9082 53.326L66.8722 53.2326C66.773 52.9749 66.6637 52.6941 66.5277 52.4298C66.9062 52.1444 67.2295 51.7898 67.5032 51.3866C68.4225 50.0285 68.8818 48.0423 68.6788 46.4218C68.5566 45.444 68.0984 44.4312 67.348 43.7718L67.3755 43.7C67.5858 43.1651 67.7769 42.6282 67.9008 42.063C68.046 41.4019 68.1168 40.7168 68.181 40.0437C68.3169 38.6221 68.2802 37.1682 68.0992 35.7521C67.7594 33.0865 66.8979 30.4696 65.3687 28.2515C65.8023 27.7312 66.1457 27.1189 65.9667 26.4146C65.8848 26.0913 65.6985 25.7848 65.4173 25.5996C65.2622 25.4975 65.0775 25.4819 64.9223 25.3972L64.8756 25.3714C64.8074 25.3315 64.8596 25.3357 64.9002 25.1504C65.061 24.41 64.9278 23.6947 64.115 23.4488C63.3499 23.2177 62.6261 23.7085 62.1733 24.2932C60.9885 23.4506 59.4271 23.0096 58.054 22.6349C56.4927 22.2103 54.891 21.9452 53.2826 21.7812ZM66.0806 46.6141C66.0862 46.011 65.5159 45.639 64.9546 45.7376C64.5777 45.8033 64.2633 46.0288 63.9681 46.2619L63.8242 46.3761C63.4647 46.659 63.0519 46.964 62.8376 47.3646C62.5235 47.9557 63.1875 48.7512 63.8074 48.3368C64.2327 48.0511 64.5053 47.5933 64.7843 47.168L64.8131 47.1242C64.9399 46.9336 65.051 46.731 65.2247 46.5782L65.2622 46.5452C65.3193 46.4964 65.3806 46.4519 65.4543 46.4308C65.5965 46.3898 65.8599 46.4473 65.9227 46.617L65.9282 46.6343C65.9512 46.72 66.0797 46.7015 66.0806 46.6141Z" fill="black"/>
<path fill-rule="evenodd" clip-rule="evenodd" d="M42.2208 54.9618C42.8455 55.2075 43.5835 55.2655 44.2283 55.0562C44.8448 54.856 45.4047 54.4105 45.7434 53.8502C46.0451 53.3511 46.1711 52.7589 45.9928 52.1685C45.9843 52.1402 45.9566 52.1221 45.9299 52.1151C45.784 52.248 45.6939 52.3799 45.6039 52.5112C45.452 52.7326 45.2999 52.9517 45.091 53.141C44.7871 53.4164 44.3777 53.64 43.9714 53.7138C43.5735 53.7861 43.1663 53.7222 42.8101 53.5317C42.5934 53.4159 42.4183 53.2611 42.2448 53.1056C42.0559 52.9363 41.8701 52.7644 41.6099 52.6687C41.4015 52.5921 41.1825 52.6568 41.0143 52.785C40.8335 52.9227 40.7035 53.1384 40.7107 53.3639C40.7218 53.7132 40.8747 54.0046 41.0965 54.2451C41.3963 54.5701 41.8203 54.8043 42.2208 54.9618ZM42.9624 46.256C42.2674 46.6787 41.2084 47.6642 41.956 48.7119C42.8361 49.6358 44.1033 48.5765 44.7277 48.0974C45.3067 47.7262 45.9573 48.6811 45.4201 49.1146C40.9079 52.4565 39.0768 46.3665 42.6109 45.7591C43 45.6922 43.1445 46.1253 42.9624 46.256ZM50.2728 40.4001C49.3255 40.3548 48.4907 40.7803 47.588 40.9737C46.7538 41.1525 45.9318 41.0452 45.1205 40.8177C43.8038 40.4486 43.2595 42.4651 44.5582 42.858C45.504 43.1442 46.4999 43.1641 47.4705 43.0166C48.3326 42.8855 49.0553 42.4656 49.8773 42.2212C50.5828 42.0115 51.4126 42.0986 52.1576 42.1973L52.4468 42.2363C52.8766 42.2942 53.3088 42.3523 53.7344 42.4363C54.1036 42.5093 54.4722 42.643 54.8492 42.6584C54.8919 42.6603 54.9282 42.6046 54.9012 42.5675C54.4634 41.9662 53.6196 41.4918 52.9484 41.1753L52.9029 41.154C52.0743 40.7675 51.1953 40.4441 50.2728 40.4001ZM50.62 44.8341L50.6202 44.8133C50.6189 44.2262 50.277 42.8856 49.4321 42.8856C48.9042 42.8856 48.5838 43.7979 48.5283 44.7385L48.5264 44.7768C48.5019 45.3615 48.6623 46.6397 49.4321 46.6397C50.2101 46.6397 50.612 45.4291 50.62 44.8341ZM38.1802 44.8341L38.1801 44.8133C38.1814 44.2262 38.5232 42.8856 39.3682 42.8856C39.8828 42.8856 40.2004 43.7529 40.2673 44.668L40.272 44.7385C40.3053 45.3034 40.1553 46.6397 39.3682 46.6397C38.5902 46.6397 38.1882 45.4291 38.1802 44.8341ZM38.1932 39.6849L38.1328 39.6863C37.1454 39.7205 36.1297 40.3057 35.8661 41.2886C35.8525 41.3396 35.9153 41.3739 35.9526 41.3389C36.7645 40.5785 37.8564 41.3051 38.6694 41.686L38.968 41.824C40.0161 42.3118 41.2081 42.8853 42.3719 42.5218C42.9246 42.3491 43.2756 41.781 43.1179 41.2072C42.9777 40.6966 42.3616 40.2675 41.8281 40.4518L41.8039 40.4606C41.3704 40.6265 40.8373 40.4584 40.3896 40.2927L40.0218 40.1546C39.4304 39.9301 38.8363 39.6789 38.1932 39.6849Z" fill="black"/>
</svg>
