<svg width="349" height="381" viewBox="0 0 349 381" fill="none" xmlns="http://www.w3.org/2000/svg">
<path fill-rule="evenodd" clip-rule="evenodd" d="M25.9595 117.256C38.035 79.5484 51.4795 37.9298 85.6312 17.9185C120.929 -2.76438 168.53 -5.88649 205.149 12.2592C239.716 29.388 242.144 77.0837 266.088 107.341C287.666 134.608 325.641 147.037 337.642 179.687C351.338 216.95 352.595 260.091 335.398 295.91C317.58 333.022 282.902 360.803 244.108 374.508C207.028 387.607 168.085 374.599 129.221 368.746C87.3537 362.44 32.7493 374.09 8.92283 339.086C-15.4612 303.264 19.852 256.197 23.1732 212.952C25.6784 180.334 15.9801 148.418 25.9595 117.256Z" fill="#043CAA" fill-opacity="0.3"/>
</svg>
