<svg width="328" height="312" viewBox="0 0 328 312" fill="none" xmlns="http://www.w3.org/2000/svg">
<path fill-rule="evenodd" clip-rule="evenodd" d="M174.997 8.75018C207.755 1.6419 243.961 -6.11826 273.09 10.4506C303.197 27.5756 325.636 61.1552 327.833 95.6851C329.906 128.28 295.964 150.251 283.915 180.615C273.057 207.978 280.02 241.083 261.161 263.703C239.638 289.519 208.538 308.702 174.997 311.256C140.244 313.902 105.195 300.236 78.7253 277.594C53.4243 255.952 46.4766 221.892 34.3168 190.92C21.2171 157.554 -10.439 122.449 5.13917 90.1624C21.0819 57.1201 70.54 63.0876 103.653 47.2167C128.629 35.2456 147.924 14.6246 174.997 8.75018Z" fill="#043CAA"/>
</svg>
